<svg xmlns="http://www.w3.org/2000/svg" width="2016.03" height="553.523" viewBox="0 0 2016.03 553.523"><defs><style>.a,.b,.c,.d,.e{fill:none;stroke-linecap:round;}.a,.b,.c,.d{stroke:#1d1d1b;stroke-linejoin:round;}.a{stroke-width:2.446px;}.b{stroke-width:2.271px;}.c{stroke-width:2.001px;}.d{stroke-width:2.002px;}.e{stroke:#e54300;stroke-width:2px;}.f,.g{fill:#e54300;opacity:0.081;}.g{stroke:#707070;}</style></defs><g transform="translate(47.282 -1562.477)"><g transform="translate(2162.313 929.118)"><g transform="translate(-2121.141 767.887)"><line class="a" y1="119.917" transform="translate(36.508 13.43)"/><line class="a" x1="16.904" y1="13.734" transform="translate(19.604 21.882)"/><line class="a" x1="16.904" y1="13.734" transform="translate(19.604 47.766)"/><line class="a" x1="16.904" y2="13.734" transform="translate(36.508 34.032)"/><circle class="a" cx="36.508" cy="36.508" r="36.508"/></g><g transform="translate(-486.565 884.198)"><line class="a" y1="119.917" transform="translate(36.508 13.43)"/><line class="a" x1="16.904" y1="13.734" transform="translate(19.604 21.882)"/><line class="a" x1="16.904" y1="13.734" transform="translate(19.604 47.766)"/><line class="a" x1="16.904" y2="13.734" transform="translate(36.508 34.032)"/><circle class="a" cx="36.508" cy="36.508" r="36.508"/></g><g transform="translate(-1396.737 859.759)"><line class="a" y1="86.518" transform="translate(12.678)"/><line class="a" x1="12.678" y1="10.301" transform="translate(0 23.75)"/><line class="a" x1="12.678" y1="10.301" transform="translate(0 43.163)"/><line class="a" x1="12.678" y2="10.301" transform="translate(12.678 32.862)"/></g><g transform="translate(-1993.718 855.885)"><line class="a" y1="136.835" transform="translate(51.596 18.981)"/><line class="a" x1="23.89" y1="19.41" transform="translate(27.706 30.926)"/><line class="a" x1="23.89" y1="19.41" transform="translate(27.706 67.507)"/><line class="a" x1="23.89" y2="19.41" transform="translate(51.596 48.096)"/><circle class="a" cx="51.596" cy="51.596" r="51.596"/></g><g transform="translate(-1720.476 867.53)"><path class="a" d="M-1719.573,888.847s10.846-30.606,28.132-30.587,28.734,31.117,28.734,31.117" transform="translate(1740.733 -858.26)"/><path class="a" d="M-1690.956,883.738c-33.714,0-43.825,13.762-43.825,13.762v13.259l5.957,4.448,5.711-3.147s12.03-6.667,32.924-6.667" transform="translate(1740.103 -857.204)"/><path class="a" d="M-1655.657,908.555" transform="translate(1743.382 -856.176)"/><path class="a" d="M-1661.62,911.536" transform="translate(1743.135 -856.052)"/><path class="a" d="M-1723.5,911.536v23.5a20.817,20.817,0,0,0,10.391,18.175c4.775,2.7,11.726,4.645,21.832,4.393" transform="translate(1740.57 -856.052)"/><path class="a" d="M-1728.98,913.954s-8.118,30.34,8.055,30.568" transform="translate(1740.259 -855.952)"/><path class="a" d="M-1660.589,912.745l.207,22.068a20.79,20.79,0,0,1-10.392,18.374c-4.774,2.687-11.712,4.62-21.787,4.368" transform="translate(1741.852 -856.002)"/><path class="a" d="M-1657.306,913.954s11.3,30.568-6.515,30.568" transform="translate(1743.043 -855.952)"/><path class="a" d="M-1723.5,917.472s10.607-7.935,17.969-5.509c10.226,3.369,18.533,3.5,23.946.852,5.317-2.6,11.58-3.189,22.32,4.361" transform="translate(1740.57 -856.072)"/><path class="a" d="M-1692.7,883.738c33.714,0,42.549,13.762,42.549,13.762v13.259l-5.958,4.448-5.711-3.147s-9.9-6.671-30.791-6.671" transform="translate(1741.847 -857.204)"/><g transform="translate(24.419 63.199)"><ellipse class="a" cx="9.007" cy="5.404" rx="9.007" ry="5.404"/><ellipse class="a" cx="9.007" cy="5.404" rx="9.007" ry="5.404" transform="translate(30.166)"/><path class="a" d="M-1681.385,928.865c1.879,1.843,2.862,5.322.795,7.412-2.565,2.593-6.659-.513-9.024,1.852-1.109,1.662-4.532,1.8-6.334,0-2.365-2.365-6.458.741-9.023-1.852-2.068-2.09-1.085-5.569.793-7.412" transform="translate(1716.871 -918.533)"/></g><line class="a" y1="33.162" x2="4.684" transform="translate(16.582 92.103)"/><line class="a" y1="28.47" x2="4.021" transform="translate(9.111 149.69)"/><line class="a" x2="2.984" y2="21.108" transform="translate(86.697 158.453)"/><path class="a" d="M-1680.53,933.665s3.2,1.5,3.583,4.017" transform="translate(1742.351 -855.135)"/><path class="a" d="M-1705.933,933.665s-3.2,1.5-3.583,4.017" transform="translate(1741.15 -855.135)"/><line class="a" y1="28.682" x2="3.353" transform="translate(24.264 97.247)"/><path class="a" d="M-1661.337,1011.02l1.49,12s-11.148,6.6-31.367,6.6c-20.739,0-30.407-6.6-30.407-6.6l2.421-20.713" transform="translate(1740.648 -852.29)"/><line class="a" x2="4.682" y2="37.704" transform="translate(71.629 96.865)"/><g transform="translate(2.479 174.876)"><g transform="translate(47.117 1.007)"><path class="a" d="M-1692.269,1038.2c15.505-.051,31.637-2.734,45.867-10.059q.947-.487,1.887-1v14.316a119.458,119.458,0,0,1-47.436,9.869" transform="translate(1692.269 -1027.144)"/></g><path class="a" d="M-1690.394,1038.24a99.443,99.443,0,0,1-45.231-11.066q-.947-.487-1.886-1V1041.5a119.438,119.438,0,0,0,47.436,9.869" transform="translate(1737.511 -1026.177)"/></g><path class="a" d="M-1737.511,1026.322c1.948-2.427,4.389-3.009,7.61-3.635" transform="translate(1739.99 -851.446)"/><path class="a" d="M-1646.068,1027.291s-1.2-1.808-8.711-3.687" transform="translate(1743.418 -851.408)"/><path class="a" d="M-1701.96,920.592s-.405-.883,1.609-1.424v-5.635" transform="translate(1741.462 -855.969)"/><path class="a" d="M-1684.47,920.581s.405-.883-1.609-1.424v-5.371" transform="translate(1742.121 -855.959)"/><g transform="translate(37.889 86.216)"><path class="a" d="M-1692.736,945.753a26.864,26.864,0,0,1-9.861-1.81,1.511,1.511,0,0,1-.787-1.986,1.51,1.51,0,0,1,1.984-.788h0a24.468,24.468,0,0,0,17.06-.016,1.513,1.513,0,0,1,1.962.845,1.51,1.51,0,0,1-.845,1.962A25.613,25.613,0,0,1-1692.736,945.753Z" transform="translate(1703.51 -941.045)"/></g><path class="a" d="M-1707.062,1000.6a4.629,4.629,0,0,1-5.384,4.532h0l-19.065-.713c-4.24-.48-7.121-5.328-7.121-9.595l-1.259-36.4c0-5.443.411-19.188,11.612-19.188" transform="translate(1739.891 -854.904)"/><path class="a" d="M-1723.969,978.54l13.869,1.187a2.673,2.673,0,0,1,2.671,2.641h0a2.674,2.674,0,0,1-3.021,2.233" transform="translate(1740.551 -853.275)"/><path class="a" d="M-1723.018,983.656l16.781,1.038a2.577,2.577,0,0,1,2.576,2.547h0a2.578,2.578,0,0,1-2.913,2.153l-10.313-.74" transform="translate(1740.59 -853.063)"/><path class="a" d="M-1724.412,987.932l19.352,1.389a2.577,2.577,0,0,1,2.575,2.547h0a2.576,2.576,0,0,1-2.913,2.153l-10.312-.74" transform="translate(1740.532 -852.886)"/><path class="a" d="M-1725.932,992.438l19.141,1.292a2.577,2.577,0,0,1,2.575,2.546h0a2.577,2.577,0,0,1-2.913,2.153l-18.8-1.224" transform="translate(1740.469 -852.699)"/><g transform="translate(60.703 86.216)"><path class="a" d="M-1676.588,1009.326a4.63,4.63,0,0,0,5.385,4.532h0l19.063-.713c4.24-.48,7.123-5.328,7.123-9.595l1.258-36.4c0-5.443,2.245-26.106-12.771-26.106" transform="translate(1681.811 -941.045)"/><path class="a" d="M-1665.184,946.7l5.931,41.965-14.945,1.187a2.672,2.672,0,0,0-2.67,2.641h0a2.673,2.673,0,0,0,3.021,2.233" transform="translate(1681.799 -940.811)"/><path class="a" d="M-1661.168,992.108l-16.78,1.039a2.575,2.575,0,0,0-2.575,2.546h0a2.577,2.577,0,0,0,2.913,2.154l10.312-.742" transform="translate(1681.648 -938.929)"/><path class="a" d="M-1659.67,996.385l-19.353,1.389a2.576,2.576,0,0,0-2.574,2.547h0a2.576,2.576,0,0,0,2.913,2.153l10.312-.74" transform="translate(1681.603 -938.752)"/><path class="a" d="M-1658.16,1000.891l-19.14,1.291a2.578,2.578,0,0,0-2.576,2.547h0a2.577,2.577,0,0,0,2.913,2.153l18.8-1.225" transform="translate(1681.675 -938.565)"/></g><path class="a" d="M-1693.026,862.921s10.82,3.618,17.754,17.79" transform="translate(1741.833 -858.067)"/><path class="a" d="M-1672.272,889.82s10.307,2.864,15.791,7.839" transform="translate(1742.693 -856.952)"/><line class="a" y2="7.451" transform="translate(10.38 42.268)"/><path class="a" d="M-1730.951,944.1s-5.215,1.658-4.763,13.418" transform="translate(1740.063 -854.702)"/><line class="a" x2="1" y2="21.908" transform="translate(4.321 108.684)"/><line class="a" x1="1.43" y2="15.386" transform="translate(30.205 104.252)"/><line class="a" x1="1.134" y2="11.775" transform="translate(24.264 154.542)"/><path class="a" d="M-1712.682,1041.627a88.233,88.233,0,0,0,43.333.4" transform="translate(1741.019 -850.661)"/><line class="a" x2="2.478" y2="19.966" transform="translate(84.219 101.575)"/><path class="a" d="M-1654.779,1005.964s4.273.228,4.613-6.9" transform="translate(1743.418 -852.425)"/></g><g transform="translate(-1861.65 832.834)"><path class="a" d="M-1794.245,855.532s-10.847-30.6-28.132-30.587-28.733,31.117-28.733,31.117" transform="translate(1876.456 -824.945)"/><path class="a" d="M-1823.351,850.423c33.715,0,43.826,13.763,43.826,13.763v13.258l-5.958,4.448-5.71-3.147s-12.03-6.667-32.924-6.667" transform="translate(1877.574 -823.889)"/><path class="a" d="M-1860.424,883.926" transform="translate(1876.07 -822.501)"/><path class="a" d="M-1854.462,876.679" transform="translate(1876.317 -822.801)"/><path class="a" d="M-1791.219,877.617l-.079,33.176a20.817,20.817,0,0,1-10.391,18.175c-4.776,2.7-11.726,4.645-21.832,4.393" transform="translate(1877.599 -822.762)"/><path class="a" d="M-1786.7,880.639s8.119,39.386-8.054,39.614" transform="translate(1878.791 -822.637)"/><path class="a" d="M-1854.421,878.382v32.206a20.794,20.794,0,0,0,10.392,18.374c4.774,2.687,11.713,4.62,21.788,4.368" transform="translate(1876.318 -822.73)"/><path class="a" d="M-1858.375,880.639s-11.3,39.614,6.514,39.614" transform="translate(1876.008 -822.637)"/><path class="a" d="M-1790.016,885.9s-10.228-7.638-17.59-5.212c-10.226,3.369-18.533,3.5-23.946.852-5.317-2.6-12.17-3.189-22.911,4.36" transform="translate(1876.317 -822.673)"/><path class="a" d="M-1821.689,850.423c-33.714,0-42.548,13.763-42.548,13.763v13.258l5.958,4.448,5.71-3.147s9.9-6.67,30.792-6.67" transform="translate(1875.911 -823.889)"/><ellipse class="a" cx="9.007" cy="5.404" rx="9.007" ry="5.404" transform="translate(60.938 69.989)"/><ellipse class="a" cx="9.007" cy="5.404" rx="9.007" ry="5.404" transform="translate(30.772 69.989)"/><path class="a" d="M-1833.633,902.07c-1.879,2.31-2.862,6.67-.795,9.29,2.565,3.251,6.659-.644,9.024,2.321,1.108,2.084,4.532,2.258,6.333,0,2.365-2.965,6.459.93,9.024-2.321,2.067-2.619,1.084-6.98-.795-9.29" transform="translate(1877.099 -821.749)"/><line class="a" x1="7.403" y1="47.492" transform="translate(84.037 97.616)"/><line class="a" x1="5.787" y1="44.804" transform="translate(94.963 169.538)"/><line class="a" x1="7.04" y2="48.245" transform="translate(8.076 167.499)"/><path class="a" d="M-1835.408,906.869s-3.206,1.5-3.583,4.017" transform="translate(1876.958 -821.55)"/><path class="a" d="M-1810.005,906.869s3.2,1.5,3.581,4.017" transform="translate(1878.159 -821.55)"/><line class="a" x1="5.1" y1="40.906" transform="translate(77.944 104.876)"/><path class="a" d="M-1853.152,986.044l-5.448,39.137a105.843,105.843,0,0,0,37.31,6.6c22.117,0,35.322-6.6,35.322-6.6l-4.213-36.8" transform="translate(1876.145 -818.269)"/><line class="a" x1="4.993" y2="37.704" transform="translate(26.192 105.911)"/><path class="a" d="M-1873.258,1027.174l-2.189,15.681a114.3,114.3,0,0,0,31.738,8.281,200.568,200.568,0,0,0,22.6,1.679" transform="translate(1875.447 -816.564)"/><path class="a" d="M-1820.847,1039.775c-13.764-.043-27.675-1.435-40.943-5.217-4.146-1.182-8.5-2.844-11.058-6.532q-.253-.364-.493-.763c-.786-1.314,3.582-1.43,7-2.231" transform="translate(1875.53 -816.653)"/><path class="a" d="M-1822.926,1039.668c16.535-.051,35.954-3.74,51.129-11.066q1.011-.487,2.012-1v15.323c-16.164,6.558-36.27,9.869-53.48,9.869" transform="translate(1877.609 -816.546)"/><path class="a" d="M-1771.591,1027.75c-2.078-2.427-4.68-3.009-8.116-3.635" transform="translate(1879.415 -816.691)"/><path class="a" d="M-1814.056,893.978s.405-.883-1.609-1.423v-10.22" transform="translate(1877.924 -822.567)"/><path class="a" d="M-1831.546,893.976s-.405-.883,1.609-1.423V882.4" transform="translate(1877.265 -822.564)"/><path class="a" d="M-1822.5,918.677a26.863,26.863,0,0,1,9.861,1.81,1.512,1.512,0,0,1,.786,1.986,1.509,1.509,0,0,1-1.983.788h0a24.472,24.472,0,0,0-17.061.016,1.513,1.513,0,0,1-1.962-.845,1.512,1.512,0,0,1,.846-1.962A25.612,25.612,0,0,1-1822.5,918.677Z" transform="translate(1877.208 -821.061)"/><path class="a" d="M-1804.283,986.793c0,2.879,2.7,4.9,5.741,4.531h0l20.331-.713c4.522-.479,7.6-5.328,7.6-9.595l.168-47.863c0-5.443.251-19.188-16.47-19.188" transform="translate(1878.396 -821.256)"/><path class="a" d="M-1786.944,964.279l-14.791,1.186a2.762,2.762,0,0,0-2.847,2.642h0a2.822,2.822,0,0,0,3.221,2.232" transform="translate(1878.384 -819.171)"/><path class="a" d="M-1787.838,969.394l-17.9,1.038a2.663,2.663,0,0,0-2.746,2.547h0a2.721,2.721,0,0,0,3.106,2.153l11-.74" transform="translate(1878.222 -818.959)"/><path class="a" d="M-1786.242,973.67l-20.638,1.39a2.662,2.662,0,0,0-2.746,2.546h0a2.722,2.722,0,0,0,3.107,2.153l11-.74" transform="translate(1878.174 -818.782)"/><path class="a" d="M-1784.631,978.176l-20.411,1.292a2.662,2.662,0,0,0-2.746,2.547h0a2.723,2.723,0,0,0,3.107,2.153l20.051-1.225" transform="translate(1878.251 -818.595)"/><path class="a" d="M-1838.271,984.7c0,2.879-2.7,4.9-5.742,4.532h0l-20.331-.713c-4.522-.48-7.6-5.328-7.6-9.595l-1.343-36.4c0-5.443-.224-26.08,15.791-26.08" transform="translate(1875.537 -821.153)"/><path class="a" d="M-1850.858,920.672l-6.545,43.42,15.937,1.187a2.761,2.761,0,0,1,2.848,2.641h0a2.824,2.824,0,0,1-3.221,2.233" transform="translate(1876.195 -820.978)"/><path class="a" d="M-1855.287,967.479l17.9,1.039a2.662,2.662,0,0,1,2.746,2.546h0a2.723,2.723,0,0,1-3.107,2.154l-11-.741" transform="translate(1876.282 -819.038)"/><path class="a" d="M-1856.774,971.756l20.638,1.389a2.664,2.664,0,0,1,2.746,2.547h0a2.723,2.723,0,0,1-3.107,2.153l-11-.74" transform="translate(1876.221 -818.861)"/><path class="a" d="M-1858.394,976.262l20.411,1.291a2.664,2.664,0,0,1,2.746,2.547h0a2.722,2.722,0,0,1-3.107,2.153l-20.051-1.225" transform="translate(1876.154 -818.674)"/><path class="a" d="M-1822.349,829.606s-10.819,3.618-17.754,17.79" transform="translate(1876.912 -824.752)"/><path class="a" d="M-1843.181,856.5s-10.308,2.864-15.792,7.839" transform="translate(1876.13 -823.637)"/><line class="a" y2="7.451" transform="translate(92.99 42.268)"/><path class="a" d="M-1861.582,922.637s-5.56,1.659-5.078,13.418" transform="translate(1875.81 -820.896)"/><line class="a" x2="1.525" y2="15.386" transform="translate(73.837 113.298)"/><line class="a" x1="2.909" y2="27.59" transform="translate(26.088 173.898)"/><path class="a" d="M-1796.439,1043.055s-24.675,6.282-49.1.4" transform="translate(1876.686 -815.906)"/><line class="a" x1="2.643" y2="19.966" transform="translate(34.17 116.598)"/><path class="a" d="M-1777.76,944.155V963.1" transform="translate(1879.495 -820.005)"/><line class="a" x1="2.075" y1="4.674" transform="translate(68.154 96.286)"/><line class="a" y1="4.674" x2="2.075" transform="translate(37.972 96.281)"/></g><path class="a" d="M-1730.227,1065.33c0,5.784-15.22,10.474-33.993,10.474-8.876,0-18.468-.687-26.8-4.028-2.288-.917-5.144-2.146-6.511-4.34-2.32-3.724,1.837-6.438,4.9-7.947,4.665-2.3,9.833-3.347,14.694-5.194,6.929-2.633,13.827-6.977,21.145-5.795a26.16,26.16,0,0,1,7.925,3.037,117.867,117.867,0,0,1,10.62,6.357C-1735.845,1059.5-1730.227,1061.927-1730.227,1065.33Z" transform="translate(16.998 17.145)"/><path class="a" d="M-1733.655,1068.6c6.111-.222,12.41-1.021,18.017-3.27,1.9-.761,4.267-1.78,5.4-3.6,1.926-3.089-1.524-5.339-4.067-6.591-3.87-1.9-8.156-2.778-12.189-4.309-5.748-2.184-11.469-5.787-17.54-4.806a21.721,21.721,0,0,0-6.575,2.519q-1.515.8-3,1.658" transform="translate(18.846 17.044)"/><g transform="translate(-2038.913 1008.454)"><path class="a" d="M-2024.148,1013.053c0,5.784,15.219,10.474,33.992,10.474,8.876,0,18.467-.686,26.8-4.028,2.287-.918,5.143-2.145,6.51-4.34,2.321-3.723-1.836-6.437-4.9-7.946-4.666-2.3-9.833-3.348-14.694-5.195-6.93-2.633-13.828-6.977-21.146-5.795a26.159,26.159,0,0,0-7.927,3.038,118.035,118.035,0,0,0-10.618,6.356C-2018.531,1007.228-2024.148,1009.651-2024.148,1013.053Z" transform="translate(2046.547 -993.476)"/><path class="a" d="M-2021.678,1016.32c-6.11-.221-12.409-1.02-18.017-3.27-1.9-.761-4.266-1.78-5.4-3.6-1.925-3.088,1.524-5.339,4.068-6.591,3.869-1.9,8.156-2.777,12.188-4.308,5.748-2.184,11.47-5.788,17.541-4.807a21.713,21.713,0,0,1,6.574,2.519q1.515.8,3,1.658" transform="translate(2045.656 -993.577)"/></g><g transform="translate(-555.229 1003.272)"><path class="a" d="M-599.5,1008.076c0,5.785,15.219,10.474,33.993,10.474,8.876,0,18.468-.686,26.8-4.027,2.288-.917,5.144-2.146,6.511-4.34,2.32-3.724-1.837-6.438-4.9-7.947-4.666-2.3-9.833-3.347-14.694-5.194-6.929-2.633-13.827-6.978-21.145-5.795a26.175,26.175,0,0,0-7.926,3.037,117.994,117.994,0,0,0-10.619,6.357C-593.886,1002.251-599.5,1004.674-599.5,1008.076Z" transform="translate(621.903 -988.499)"/><path class="a" d="M-597.033,1011.343c-6.111-.221-12.41-1.02-18.017-3.269-1.9-.761-4.267-1.781-5.4-3.6-1.926-3.089,1.523-5.34,4.067-6.592,3.87-1.9,8.156-2.776,12.188-4.308,5.749-2.184,11.47-5.787,17.541-4.806a21.716,21.716,0,0,1,6.575,2.519q1.515.8,3,1.657" transform="translate(621.012 -988.601)"/></g><path class="a" d="M-1993.759,893.814c-27.881-2.718-201.434-5.116-213.808-5.675" transform="translate(0.033 10.508)"/><path class="a" d="M-1860.14,908.327c-17.779-2.255-33.382-3.837-43.519-4.78" transform="translate(12.628 11.146)"/><path class="a" d="M-1735.022,943.876c-1.755-2.109-4.924-4.689-9.956-7.839-6.566-4.11-16.124-7.828-27.444-11.165" transform="translate(18.066 12.03)"/><path class="a" d="M-1771.909,951.091q5.941.155,12.143.58s13.476,1.148,21.2-.869" transform="translate(18.088 13.105)"/><path class="a" d="M-2044.018,1009.178c-7.956.848-14.995,1.515-20.455,1.9" transform="translate(5.963 15.524)"/><path class="a" d="M-1867.728,971.129c-4.92,2.391-12.052,5.231-19.983,8.145a455.335,455.335,0,0,1-92.111,23.165" transform="translate(9.471 13.947)"/><path class="a" d="M-1645.988,995.247s55.733-19.945,64.411-60.979" transform="translate(23.306 12.42)"/><path class="a" d="M-1727.511,1018.416s-21.15,6.82-52.515,2.214" transform="translate(17.751 15.907)"/><path class="a" d="M-1862.552,1003.649s-28.345-16.186-18.875-27.625" transform="translate(13.469 14.15)"/><line class="a" x2="19.186" transform="translate(-1730.421 946.059)"/><path class="a" d="M-1003.665,934h477.153" transform="translate(49.925 12.408)"/><line class="a" x2="169.172" transform="translate(-1164.807 946.404)"/><line class="a" x2="235.018" transform="translate(-1492.861 946.404)"/><line class="a" x2="105.411" transform="translate(-1631.206 946.404)"/><line class="a" x2="177.337" transform="translate(-1037.925 984.149)"/><line class="a" x2="95.465" transform="translate(-1184.248 984.149)"/><line class="a" x2="145.44" transform="translate(-1582.623 984.149)"/><g transform="translate(-1826.253 634.582)"><circle class="a" cx="42.546" cy="42.546" r="42.546"/></g><path class="a" d="M-1779.708,695.639a32.255,32.255,0,0,1-30.822,8.449" transform="translate(16.487 2.53)"/><g transform="translate(-916.51 808.455)"><ellipse class="a" cx="106.52" cy="26.084" rx="106.52" ry="26.084" transform="translate(37.995)"/><line class="a" x1="37.995" y2="112.149" transform="translate(0 26.084)"/><line class="a" x1="24.174" y2="73.463" transform="translate(18.997 43.439)"/><line class="a" x2="39.527" y2="111.864" transform="translate(251.035 26.084)"/><line class="a" x2="6.448" y2="18.138" transform="translate(247.663 52.168)"/><path class="a" d="M-823.263,808.156s28.842,0,52.6,4.284" transform="translate(973.912 -801.262)"/><path class="a" d="M-778.732,858.916s30.884-1.786,53.007-16.793" transform="translate(975.757 -799.854)"/><path class="a" d="M-894.078,846.74s1.511-19.149,67.616-20.155c67.254-1.025,79.515,17.355,79.515,17.355" transform="translate(970.977 -800.5)"/><line class="a" y2="85.436" transform="translate(144.515 52.168)"/><line class="a" y2="43.482" transform="translate(135.387 59.062)"/><line class="a" y2="20.048" transform="translate(135.387 110.355)"/><path class="a" d="M-805.287,833.647s34.353,2.621,46.388,12.034" transform="translate(974.656 -800.206)"/><path class="a" d="M-921.6,830.542c0-5.025,6.864-9.656,18.422-13.365" transform="translate(969.836 -800.888)"/><line class="a" x2="110.81" transform="translate(164.4 127.677)"/><line class="a" y2="57.579" transform="translate(122.283 72.823)"/><line class="a" x2="77.4" transform="translate(18.747 127.677)"/></g><line class="a" x2="487.481" transform="translate(-1037.924 1048.584)"/><path class="a" d="M-1563.188,1001.063h133.224a124.268,124.268,0,0,1,61.292,16.166h0a124.27,124.27,0,0,0,61.292,16.167h198.456" transform="translate(26.737 15.188)"/><line class="a" x2="68.735" transform="translate(-1622.979 1016.25)"/><line class="a" x1="342.484" transform="translate(-1623.127 1048.584)"/><line class="a" x2="1663.358" transform="translate(-2206.697 1113.248)"/><line class="a" x2="142.173" transform="translate(-469.404 1017.546)"/><path class="a" d="M-978.055,1033.345l30.436-8.261a652.465,652.465,0,0,1,170.894-22.777h170.519" transform="translate(50.986 15.239)"/><line class="a" x2="209.677" transform="translate(-784.334 1033.065)"/><path class="a" d="M-1638.667,980.74s21.87-10.647,41.311-39.262" transform="translate(23.609 12.718)"/><line class="a" x2="67.704" transform="translate(-2038.055 1096.029)"/><line class="a" x2="194.53" transform="translate(-2208.371 1083.794)"/><line class="a" x1="60.59" transform="translate(-1921.241 1051.967)"/><line class="a" x1="95.719" transform="translate(-1876.286 1079.197)"/><line class="a" x2="215.757" transform="translate(-1606.552 1096.029)"/><line class="a" x2="62.38" transform="translate(-1701.553 779.56)"/><line class="a" x2="62.38" transform="translate(-1244.248 842.275)"/><line class="a" x2="62.38" transform="translate(-1335.754 736.384)"/><line class="a" x2="62.38" transform="translate(-1315.99 721.457)"/><line class="a" x2="62.38" transform="translate(-1048.969 779.56)"/><line class="a" x2="62.38" transform="translate(-1017.778 762.768)"/><line class="a" x2="62.38" transform="translate(-1000.768 796.353)"/><line class="a" x1="62.38" transform="translate(-577.061 779.56)"/><line class="a" x1="62.38" transform="translate(-608.251 762.768)"/><line class="a" x1="62.38" transform="translate(-625.261 796.353)"/><path class="a" d="M-1258.389,1095.134s10.762-23.467,46.865-23.467,187.46,23.467,245.087,23.467" transform="translate(39.369 18.114)"/><line class="a" x2="115.6" transform="translate(-1270.858 1019.071)"/><line class="a" x2="115.6" transform="translate(-748.665 984.149)"/><line class="a" x2="44.782" transform="translate(-656.237 1063.05)"/><line class="a" x2="108.914" transform="translate(-508.956 1048.584)"/><line class="a" x2="234.143" transform="translate(-508.955 1113.248)"/><line class="a" x2="44.782" transform="translate(-947.612 1096.455)"/><g transform="translate(-405.619 994.909)"><path class="a" d="M-294.975,980.571s-98.686,10.825-138.118,38.659-13.917,30.154,26.288,35.565,94.328,16.237,62.627,42.525q-2.368,1.964-4.632,3.865l-49.719,36.763" transform="translate(478.373 -980.571)"/><path class="a" d="M-294.977,1015.157c-125.534-9.278-157.772,24.393-157.772,24.393" transform="translate(478.374 -979.205)"/><path class="a" d="M-450.228,1033.529a174.6,174.6,0,0,0-10.8,16.083c-7.431,12.21-17.426,29.71-16.234,47.1" transform="translate(477.355 -978.376)"/></g><line class="a" y2="12.628" transform="translate(-442.882 935.028)"/><line class="a" y2="12.628" transform="translate(-442.882 906.634)"/><path class="b" d="M-546.72,898.443A33.961,33.961,0,0,1-524.281,880.3" transform="translate(68.861 10.183)"/><line class="b" y2="23.831" transform="translate(-1377.721 866.565)"/><line class="b" y2="23.831" transform="translate(-1390.398 917.422)"/><line class="b" y2="39.199" transform="translate(-2076.181 850.637)"/><line class="b" y2="39.199" transform="translate(-1932.003 966.129)"/><line class="b" x2="28.119" y2="2.416" transform="translate(-1883.576 908.227)"/><g transform="translate(-441.49 781.977)"><path class="c" d="M-429.191,860.658a32.878,32.878,0,0,1-6.285,8.458c-.956-.837-1.792-2.27-2.509,2.151s-10.276,11.112-16.848,23.061-11.829,17.207-11.829,17.207-1.554-4.421-1.076-17.923,4.9-30.469,4.9-30.469,2.27,5.735,2.151,1.076,2.63-15.892,16.131-20.194c8.439-2.689,13.657-1.6,16.384-.4" transform="translate(513.621 -773.367)"/><path class="c" d="M-426.973,840.894A15.374,15.374,0,0,0-432.555,837a34.645,34.645,0,0,0-12.209-2.311c-7.871-.295-16.228.762-22.751,5.663-5.157,3.874-9.026,9.249-12.013,14.909a77.254,77.254,0,0,0-4.614,10.676q-.959,2.754-1.729,5.569c-.358,1.3-1.195,3.334-.693,4.7a.608.608,0,0,0,.352.408c2.055.591,4.448-1.914,5.984-2.944,3.567-2.391,7.2-4.686,10.816-7,3.087-1.972,6.11-4.316,9.755-5.134" transform="translate(512.838 -773.686)"/><path class="c" d="M-419.21,776.768c-.487,3.035-.975,6.279-1.413,9.6" transform="translate(515.577 -776.085)"/><path class="c" d="M-444.8,808c.433-7.462,2.471-18.1,11.866-31.89" transform="translate(514.575 -776.112)"/><path class="c" d="M-450.994,830.489c-8.11-2.311-21.523-3.209-42.327,2.956a53.537,53.537,0,0,0-17.257,9.153c-1.11.853-1.615.267-.862-4.143,1.654-9.685,21.64-43.543,67.693-27.694" transform="translate(511.799 -774.849)"/><path class="c" d="M-443.093,835.03a16.98,16.98,0,0,0-5-3.459" transform="translate(514.439 -773.814)"/><path class="c" d="M-448.054,820.637c-8.256-3.248-17.9-3.772-26.542-2.239-7.475,1.325-14.972,3.432-21.481,7.447-6.589,4.064-11.451,9.98-15.448,16.544" transform="translate(511.81 -774.394)"/><path class="c" d="M-433.056,838.006a28.416,28.416,0,0,0-7.755-11.556" transform="translate(514.74 -774.026)"/><path class="c" d="M-384.5,1002.514c-.243-41.59-2.9-106.368-21.867-139.582" transform="translate(516.168 -772.514)"/><path class="c" d="M-421.348,864.17c8.976,18.274,23.072,60.469,21.375,143.4" transform="translate(515.547 -772.463)"/><path class="c" d="M-368.661,830.92c-9.556-1.8-19.849-2.016-29.107.919" transform="translate(516.524 -773.896)"/><path class="c" d="M-342.918,825.728a33.3,33.3,0,0,1,2.593,14.405c-.079,1.788-3.5.716-6.4-.512" transform="translate(518.64 -774.056)"/><path class="c" d="M-363.454,847.708c-9.213-.812-18.453-1.682-22.483-1.222" transform="translate(517.015 -773.201)"/><path class="c" d="M-371.952,830.5s1.1.767,2.789,2.037" transform="translate(517.594 -773.858)"/><path class="c" d="M-415.889,856.385a47.23,47.23,0,0,0,13.308,9.59,126.789,126.789,0,0,1,14.67,8.616q5.749,3.955,11.253,8.247c2.147,1.68,4.291,3.608,6.366,5.463,1.985,1.776,4.1,4.241,6.62,5.236,3.276,1.3.568-5.686.226-6.7-2.886-8.555-10.548-40.863-37.38-49.291,12.97-6.031,26.334-2.7,35.844,1.6" transform="translate(515.773 -773.702)"/><path class="c" d="M-340.579,839.56" transform="translate(518.894 -773.483)"/><path class="c" d="M-384.01,811.586q2.773.024,5.329.239" transform="translate(517.094 -774.642)"/><path class="c" d="M-401.387,837.426s-.347-.106-.978-.236" transform="translate(516.334 -773.581)"/><path class="c" d="M-362.431,892.674s-19.636-44.137-48.682-44.816" transform="translate(515.971 -773.139)"/><path class="c" d="M-428.9,851.085c-7.982.98-30.884,7.872-38.686,54.228" transform="translate(513.631 -773.005)"/><path class="c" d="M-444.834,844.3s-25.952-2.97-41.735,31.5" transform="translate(512.844 -773.289)"/><path class="c" d="M-432.715,792.832a121.477,121.477,0,0,1,5.336-16.72" transform="translate(515.076 -776.112)"/></g><line class="a" x2="71.859" transform="translate(-408.026 946.404)"/><line class="a" x2="71.859" transform="translate(-438.876 978.768)"/><line class="a" x2="71.859" transform="translate(-417.093 989.529)"/><line class="a" x2="61.445" transform="translate(-569.971 955.087)"/><path class="a" d="M-561.772,998.46s-9.2-6.79-18.4,1.215" transform="translate(67.475 14.968)"/><g transform="translate(-413.052 692.444)"><path class="a" d="M-379.352,797.116s1.9,15.923-11.833,29.361c-1.168-1.022-2.191-2.776-3.067,2.63s-12.563,13.586-20.6,28.194-14.461,21.035-14.461,21.035-1.9-5.405-1.315-21.912q.055-1.539.162-3.12c1.073-15.884,5.827-34.13,5.827-34.13s2.775,7.012,2.63,1.315,3.214-19.429,19.721-24.687S-379.352,797.116-379.352,797.116Z" transform="translate(486.72 -685.847)"/><path class="a" d="M-378.4,797.507c-.28-4.962-5.055-8.529-9.218-10.294a42.371,42.371,0,0,0-14.926-2.824c-9.623-.36-19.838.932-27.814,6.923-6.3,4.735-11.035,11.308-14.686,18.226a94.579,94.579,0,0,0-5.641,13.053q-1.17,3.366-2.113,6.807c-.437,1.593-1.46,4.075-.847,5.741a.746.746,0,0,0,.43.5c2.513.723,5.438-2.341,7.316-3.6,4.362-2.924,8.8-5.73,13.224-8.558,3.773-2.411,7.469-5.276,11.926-6.278" transform="translate(485.763 -686.238)"/><path class="a" d="M-397.269,788.555s-15.361-17.8-64.635-3.2A65.454,65.454,0,0,0-483,796.542c-1.358,1.043-1.976.326-1.055-5.065,2.045-11.979,27.024-54.2,84.725-33.161,0-11.393.877-32.137,28.778-62.083,0,0,9.056-12.563,7.3-1.607s-10.956,55.218-5.405,72.309" transform="translate(484.492 -690.141)"/><path class="a" d="M-384.644,788.895c-8.006-22.048-33.553-28.112-54.367-24.422-9.139,1.62-18.3,4.2-26.26,9.105-8.057,4.969-14,12.2-18.885,20.226" transform="translate(484.506 -687.103)"/><path class="a" d="M-328.818,990.364c-.3-50.845-3.592-130.839-26.786-171.445" transform="translate(489.834 -684.805)"/><path class="a" d="M-382.249,806.733s36.133,41.843,33.116,189.308" transform="translate(488.729 -685.31)"/><path class="a" d="M-381.4,786.078s6.816-47.5,59.794-43.6c26.1,2.142,52,22.593,50.836,49.864-.131,2.94-14.472-3.665-15.947-4.354A88.974,88.974,0,0,0-308,781.271c-16.37-3.091-34.511-2.361-48.465,7.427" transform="translate(488.765 -687.982)"/><path class="a" d="M-312.815,779.265s14.917,10.418,21.928,19.329c2.191,3.651.714,3.651-10.963,2.629s-23.657-2.191-28.77-1.607" transform="translate(490.869 -686.448)"/><path class="a" d="M-374.28,798.5s2.141,13.279,23.6,24.141a155.05,155.05,0,0,1,17.934,10.534q7.027,4.833,13.757,10.082c2.624,2.054,5.245,4.409,7.782,6.679,2.428,2.171,5.016,5.184,8.094,6.4,4.005,1.584.695-6.952.277-8.19-3.528-10.458-12.9-49.956-45.7-60.261,29.216-13.584,60.069,11.672,60.069,11.672" transform="translate(489.06 -686.257)"/><path class="a" d="M-348.326,789.034s-16.277-4.967-30.927,8.765c4.045-15.022,13.333-29.461,27.343-36.9,7.857-4.172,16.766-4.8,25.515-4.752a76.382,76.382,0,0,1,20.242,2.666A53.154,53.154,0,0,1-281.275,773.7a47.573,47.573,0,0,1,9.452,15.107,27.667,27.667,0,0,1,.967,2.951" transform="translate(488.853 -687.406)"/><path class="a" d="M-301.414,855.28s-29.429-66.149-71.32-53.093" transform="translate(489.124 -685.569)"/><path class="a" d="M-379.74,804.266s-39.067-2.617-50.7,66.474" transform="translate(486.732 -685.413)"/><path class="a" d="M-402.592,796.142s-32.575-2.331-51.871,39.81" transform="translate(485.737 -685.75)"/><path class="a" d="M-377.264,775.918s-17.238-9.885-11.29-38.128A142.608,142.608,0,0,1-369.543,690.8" transform="translate(488.416 -690.114)"/></g><path class="c" d="M-336.619,934s1.3,29.546,1.112,44.929" transform="translate(77.568 12.408)"/><path class="c" d="M-348.167,852.333s8,26.9,10.075,52.246" transform="translate(77.09 9.024)"/><path class="c" d="M-361.167,806.733s3.472,6.331,15.8,11.289" transform="translate(76.551 7.134)"/><path class="c" d="M-316,795.083a110.87,110.87,0,0,1,13.365,1.823" transform="translate(78.423 6.651)"/><path class="a" d="M-295.417,779.265s9.287,5.365,14.754,6.319" transform="translate(79.276 5.996)"/><path class="a" d="M-358.625,774.186s7.03-11.2,24.995-11.456" transform="translate(76.656 5.311)"/><path class="a" d="M-327.75,746.625a48.277,48.277,0,0,1,15.231,2.473" transform="translate(77.936 4.643)"/><path class="a" d="M-409.807,868.633a90.167,90.167,0,0,1,12.012,30.66" transform="translate(74.535 9.699)"/><path class="a" d="M-393.659,934.543s2.173,23.1,2.746,42.555" transform="translate(75.205 12.431)"/><path class="c" d="M-475.417,865.44s7.2-6.162,11.89-6.857" transform="translate(71.816 9.283)"/><path class="c" d="M-464.618,810.565a56.965,56.965,0,0,1,13.713,2.6" transform="translate(72.264 7.293)"/><path class="c" d="M-380,737.5s-5.82,14.249,3.03,26.276" transform="translate(75.693 4.265)"/><path class="c" d="M-422.5,855.735s6.249-15.415,15.968-22.636" transform="translate(74.009 8.227)"/><path class="c" d="M-459.5,889.757c.174-.532,5.5-13.029,14.38-18.757" transform="translate(72.476 9.798)"/><g transform="translate(-841.981 1061.254)"><path class="d" d="M-865.389,1059.937l8.144-12.612a5.212,5.212,0,0,1,2.917-2.2,29.912,29.912,0,0,1,8.1-.845h40.167a12.005,12.005,0,0,1,9.683,5.259,104.873,104.873,0,0,0,8.846,10.759h18.388a6.029,6.029,0,0,1,4.475,1.853c1.255,1.375,2.121,3.646.568,7.233-3.108,7.172-4.065,9.683-4.065,9.683H-782.6" transform="translate(897.636 -1044.276)"/><circle class="d" cx="10.042" cy="10.042" r="10.042" transform="translate(94.952 26.062)"/><circle class="d" cx="10.042" cy="10.042" r="10.042" transform="translate(38.423 26.062)"/><line class="d" x1="36.632" transform="translate(58.412 34.788)"/><path class="d" d="M-858.023,1075.818h-14s-5.17,0-1.315-6.822c3.3-5.836,5.38-9.682,5.38-9.682h61.685" transform="translate(897.247 -1043.652)"/><line class="d" y2="11.596" transform="translate(81.529 3.109)"/><line class="d" x1="12.099" transform="translate(23.525 26.062)"/><line class="d" x1="17.334" transform="translate(0 21.758)"/><line class="d" x1="12.976" transform="translate(22.648 3.109)"/><line class="d" x1="3.74" transform="translate(14.465 3.109)"/><circle class="d" cx="10.042" cy="10.042" r="10.042" transform="translate(94.952 26.062)"/></g><g transform="translate(-1376.501 1062.567)"><path class="d" d="M-1378.639,1061.2l8.144-12.612a5.212,5.212,0,0,1,2.917-2.2,29.9,29.9,0,0,1,8.095-.846h40.167a12.008,12.008,0,0,1,9.683,5.26,104.932,104.932,0,0,0,8.846,10.759h18.388a6.03,6.03,0,0,1,4.475,1.853c1.255,1.375,2.121,3.646.568,7.233-3.108,7.172-4.065,9.682-4.065,9.682h-14.43" transform="translate(1410.886 -1045.537)"/><circle class="d" cx="10.042" cy="10.042" r="10.042" transform="translate(94.952 26.063)"/><circle class="d" cx="10.042" cy="10.042" r="10.042" transform="translate(38.423 26.063)"/><line class="d" x1="36.632" transform="translate(58.412 34.789)"/><path class="d" d="M-1371.273,1077.08h-14s-5.17,0-1.315-6.821c3.3-5.836,5.38-9.682,5.38-9.682h61.685" transform="translate(1410.497 -1044.913)"/><line class="d" y2="11.596" transform="translate(81.529 3.11)"/><line class="d" x1="12.099" transform="translate(23.525 26.063)"/><line class="d" x1="17.334" transform="translate(0 21.759)"/><line class="d" x1="12.976" transform="translate(22.648 3.11)"/><line class="d" x1="3.74" transform="translate(14.465 3.11)"/><circle class="d" cx="10.042" cy="10.042" r="10.042" transform="translate(94.952 26.063)"/></g><g transform="translate(-1398.524 958.945)"><path class="d" d="M-1317.915,980.826h14.431s.957-2.511,4.065-9.683c1.554-3.587.687-5.858-.568-7.233a6.03,6.03,0,0,0-4.476-1.853h-18.387A104.86,104.86,0,0,1-1331.7,951.3a12,12,0,0,0-9.682-5.259h-36.288V961.7" transform="translate(1432.95 -946.038)"/><circle class="d" cx="10.042" cy="10.042" r="10.042" transform="translate(94.952 26.062)"/><circle class="d" cx="10.042" cy="10.042" r="10.042" transform="translate(38.423 26.062)"/><line class="d" x1="36.632" transform="translate(58.412 34.789)"/><path class="d" d="M-1392.42,977.58h-14s-5.171,0-1.315-6.82c3.3-5.836,5.38-9.683,5.38-9.683h61.685" transform="translate(1431.645 -945.414)"/><line class="d" x1="12.099" transform="translate(23.525 26.062)"/><line class="d" x1="17.334" transform="translate(0 21.758)"/><line class="d" x1="12.976" transform="translate(22.648 3.109)"/><line class="d" x1="3.74" transform="translate(14.465 3.109)"/><circle class="d" cx="10.042" cy="10.042" r="10.042" transform="translate(94.952 26.062)"/><path class="d" d="M-1364.556,950.5h14.676a19.5,19.5,0,0,1,15.8,8.071h0" transform="translate(1433.493 -945.853)"/></g><g transform="translate(-1051.576 1000.974)"><path class="a" d="M-1079.2,1014.958h-14.26c-4.5,0-4.794-8.121-3.424-9.491,2.74-2.055,1.716-4.11,1.716-7.062s2.2-2.429,4.056-2.82c16.437-2.935,22.112-9.1,41.777-9.19,10.063-.047,19.262,3.039,28.092,7.625,1.409.732,2.815,1.465,4.251,2.144,3.047,1.441,6.43,1.181,9.684,1.532a90.813,90.813,0,0,1,11.385,1.662,56.63,56.63,0,0,1,8.814,2.846c1.758.737,5.572,2.13,5.282,4.619v4.545a2.805,2.805,0,0,1-2.806,2.806h-7.912" transform="translate(1097.607 -986.395)"/><line class="a" x1="57.651" transform="translate(33.158 28.563)"/><circle class="a" cx="7.191" cy="7.191" r="7.191" transform="translate(18.386 21.812)"/><circle class="a" cx="7.191" cy="7.191" r="7.191" transform="translate(90.788 21.812)"/><path class="a" d="M-1069.079,998.613c-.918-.058-4.614-.016-3.59-1.86.494-.889,1.982-1.537,2.815-1.939a29.131,29.131,0,0,1,3.431-1.449c12.175-4.072,27.119-2.3,38.343,3.782a61.357,61.357,0,0,1,5.773,3.553.658.658,0,0,1-.42,1.2c-4.65-.37-9.3-.705-13.955-1.045q-13.616-.994-27.238-1.912Q-1066.5,998.779-1069.079,998.613Z" transform="translate(1098.634 -986.197)"/></g><line class="a" x2="478.409" transform="translate(-690.865 1152.287)"/><line class="a" x2="841.3" transform="translate(-1606.552 1152.287)"/><line class="a" x2="258.368" transform="translate(-2048.282 1152.287)"/></g><path class="e" d="M12204.51,693.762h18.364" transform="translate(-10830 1302)"/><path class="e" d="M12204.51,693.762h18.364" transform="translate(-11051 1259)"/><path class="e" d="M12204.51,693.762h18.364" transform="translate(-11350 1326)"/><path class="e" d="M12204.51,693.762h18.364" transform="translate(-11368 1216)"/><rect class="f" width="372" height="35" transform="translate(0 2081)"/><rect class="f" width="450" height="35" transform="translate(1470 2081)"/><circle class="f" cx="42.5" cy="42.5" r="42.5" transform="translate(177 1795)"/><path class="g" d="M12070.552,676.026h543.813s17.645-21.815,51.811-31.07h-409.842s-16.775-.611-46.885,2.485C12177.214,650.755,12129.25,658.45,12070.552,676.026Z" transform="translate(-10830 1302)"/><circle class="f" cx="43.5" cy="43.5" r="43.5" transform="translate(335 1563)"/><rect class="f" width="114" height="18" rx="9" transform="translate(894 1762)"/><rect class="f" width="114" height="18" rx="9" transform="translate(438 1699)"/><rect class="f" width="114" height="18" rx="9" transform="translate(1123 1683)"/><path class="f" d="M12152.821,481.688s1.744-21.289,81.62-19.963c25.418.676,52.28,4.411,64.869,17.1C12287.638,481.741,12220.99,495.3,12152.821,481.688Z" transform="translate(-10830 1302)"/></g></svg>