<svg xmlns="http://www.w3.org/2000/svg" width="206.202" height="99.226" viewBox="0 0 206.202 99.226"><defs><style>.a{fill:none;stroke:#e54300;}</style></defs><g transform="translate(440.259 -741.284)"><path class="a" d="M-328.874,796.515a3.994,3.994,0,0,1,3.995-3.993,3.993,3.993,0,0,1,3.993,3.993,3.993,3.993,0,0,1-3.993,3.993A3.994,3.994,0,0,1-328.874,796.515Z" transform="translate(86.329 39.502)"/><path class="a" d="M-347.355,796.515a3.994,3.994,0,0,1,3.995-3.993,3.993,3.993,0,0,1,3.993,3.993,3.993,3.993,0,0,1-3.993,3.993A3.994,3.994,0,0,1-347.355,796.515Z" transform="translate(71.941 39.502)"/><path class="a" d="M-365.835,796.515a3.993,3.993,0,0,1,3.993-3.993,3.993,3.993,0,0,1,3.993,3.993,3.993,3.993,0,0,1-3.993,3.993A3.993,3.993,0,0,1-365.835,796.515Z" transform="translate(57.553 39.502)"/><path class="a" d="M-384.316,796.515a3.993,3.993,0,0,1,3.993-3.993,3.993,3.993,0,0,1,3.993,3.993,3.993,3.993,0,0,1-3.993,3.993A3.993,3.993,0,0,1-384.316,796.515Z" transform="translate(43.165 39.502)"/><path class="a" d="M-402.8,796.515a3.993,3.993,0,0,1,3.993-3.993,3.993,3.993,0,0,1,3.993,3.993,3.993,3.993,0,0,1-3.993,3.993A3.993,3.993,0,0,1-402.8,796.515Z" transform="translate(28.777 39.502)"/><path class="a" d="M-421.278,796.515a3.993,3.993,0,0,1,3.993-3.993,3.994,3.994,0,0,1,3.995,3.993,3.994,3.994,0,0,1-3.995,3.993A3.993,3.993,0,0,1-421.278,796.515Z" transform="translate(14.388 39.502)"/><path class="a" d="M-439.759,796.515a3.993,3.993,0,0,1,3.993-3.993,3.993,3.993,0,0,1,3.995,3.993,3.993,3.993,0,0,1-3.995,3.993A3.993,3.993,0,0,1-439.759,796.515Z" transform="translate(0 39.502)"/><path class="a" d="M-328.874,779.6a3.994,3.994,0,0,1,3.995-3.993,3.993,3.993,0,0,1,3.993,3.993,3.993,3.993,0,0,1-3.993,3.993A3.994,3.994,0,0,1-328.874,779.6Z" transform="translate(86.329 26.334)"/><path class="a" d="M-347.355,779.6a3.994,3.994,0,0,1,3.995-3.993,3.993,3.993,0,0,1,3.993,3.993,3.993,3.993,0,0,1-3.993,3.993A3.994,3.994,0,0,1-347.355,779.6Z" transform="translate(71.941 26.334)"/><path class="a" d="M-365.835,779.6a3.993,3.993,0,0,1,3.993-3.993,3.993,3.993,0,0,1,3.993,3.993,3.993,3.993,0,0,1-3.993,3.993A3.993,3.993,0,0,1-365.835,779.6Z" transform="translate(57.553 26.334)"/><path class="a" d="M-384.316,779.6a3.993,3.993,0,0,1,3.993-3.993,3.993,3.993,0,0,1,3.993,3.993,3.993,3.993,0,0,1-3.993,3.993A3.993,3.993,0,0,1-384.316,779.6Z" transform="translate(43.165 26.334)"/><path class="a" d="M-402.8,779.6a3.993,3.993,0,0,1,3.993-3.993,3.993,3.993,0,0,1,3.993,3.993,3.993,3.993,0,0,1-3.993,3.993A3.993,3.993,0,0,1-402.8,779.6Z" transform="translate(28.777 26.334)"/><path class="a" d="M-421.278,779.6a3.993,3.993,0,0,1,3.993-3.993,3.994,3.994,0,0,1,3.995,3.993,3.994,3.994,0,0,1-3.995,3.993A3.993,3.993,0,0,1-421.278,779.6Z" transform="translate(14.388 26.334)"/><path class="a" d="M-439.759,779.6a3.993,3.993,0,0,1,3.993-3.993,3.993,3.993,0,0,1,3.995,3.993,3.993,3.993,0,0,1-3.995,3.993A3.993,3.993,0,0,1-439.759,779.6Z" transform="translate(0 26.334)"/><path class="a" d="M-328.874,762.691a4,4,0,0,1,3.995-3.995,3.994,3.994,0,0,1,3.993,3.995,3.993,3.993,0,0,1-3.993,3.993A3.994,3.994,0,0,1-328.874,762.691Z" transform="translate(86.329 13.167)"/><circle class="a" cx="3.993" cy="3.993" r="3.993" transform="translate(-275.414 771.863)"/><circle class="a" cx="3.993" cy="3.993" r="3.993" transform="translate(-308.283 771.863)"/><circle class="a" cx="3.993" cy="3.993" r="3.993" transform="translate(-341.152 771.863)"/><path class="a" d="M-402.8,762.691A3.994,3.994,0,0,1-398.8,758.7a3.994,3.994,0,0,1,3.993,3.995,3.993,3.993,0,0,1-3.993,3.993A3.993,3.993,0,0,1-402.8,762.691Z" transform="translate(28.777 13.167)"/><path class="a" d="M-421.278,762.691a3.994,3.994,0,0,1,3.993-3.995,4,4,0,0,1,3.995,3.995,3.994,3.994,0,0,1-3.995,3.993A3.993,3.993,0,0,1-421.278,762.691Z" transform="translate(14.388 13.167)"/><path class="a" d="M-439.759,762.691a3.994,3.994,0,0,1,3.993-3.995,3.994,3.994,0,0,1,3.995,3.995,3.993,3.993,0,0,1-3.995,3.993A3.993,3.993,0,0,1-439.759,762.691Z" transform="translate(0 13.167)"/><path class="a" d="M-328.874,745.777a3.994,3.994,0,0,1,3.995-3.993,3.993,3.993,0,0,1,3.993,3.993,3.993,3.993,0,0,1-3.993,3.993A3.994,3.994,0,0,1-328.874,745.777Z" transform="translate(86.329)"/><path class="a" d="M-347.355,745.777a3.994,3.994,0,0,1,3.995-3.993,3.993,3.993,0,0,1,3.993,3.993,3.992,3.992,0,0,1-3.993,3.993A3.994,3.994,0,0,1-347.355,745.777Z" transform="translate(71.941)"/><path class="a" d="M-365.835,745.777a3.993,3.993,0,0,1,3.993-3.993,3.993,3.993,0,0,1,3.993,3.993,3.993,3.993,0,0,1-3.993,3.993A3.992,3.992,0,0,1-365.835,745.777Z" transform="translate(57.553)"/><path class="a" d="M-384.316,745.777a3.993,3.993,0,0,1,3.993-3.993,3.993,3.993,0,0,1,3.993,3.993,3.992,3.992,0,0,1-3.993,3.993A3.992,3.992,0,0,1-384.316,745.777Z" transform="translate(43.165)"/><path class="a" d="M-402.8,745.777a3.993,3.993,0,0,1,3.993-3.993,3.993,3.993,0,0,1,3.993,3.993,3.992,3.992,0,0,1-3.993,3.993A3.993,3.993,0,0,1-402.8,745.777Z" transform="translate(28.777)"/><path class="a" d="M-421.278,745.777a3.993,3.993,0,0,1,3.993-3.993,3.994,3.994,0,0,1,3.995,3.993,3.994,3.994,0,0,1-3.995,3.993A3.993,3.993,0,0,1-421.278,745.777Z" transform="translate(14.388)"/><path class="a" d="M-439.759,745.777a3.993,3.993,0,0,1,3.993-3.993,3.993,3.993,0,0,1,3.995,3.993,3.993,3.993,0,0,1-3.995,3.993A3.993,3.993,0,0,1-439.759,745.777Z"/></g></svg>