<svg xmlns="http://www.w3.org/2000/svg" width="125.602" height="34.378" viewBox="0 0 125.602 34.378"><defs><style>.a{fill:none;}.b{fill:#fff;}.c{fill:#e54300;}</style></defs><path class="a" d="M-188.676,159.748h3.579l-.144-3.9Z" transform="translate(302.29 -136.872)"/><path class="a" d="M-265.1,130.416a5.237,5.237,0,0,0,2.706-2.657c.425-1.013.1-1.221-.183-1.4a6.8,6.8,0,0,0-3.618-.781h-6.718l-2.482,5.907h5.652A10.447,10.447,0,0,0-265.1,130.416Z" transform="translate(358.118 -117.394)"/><path class="a" d="M-431.834,155.851l-3.435,3.9h3.579Z" transform="translate(461.044 -136.872)"/><path class="b" d="M-442.778,111.962l-12.155,14.753.114-14.753h-7.936l-7.475,17.79-.867-17.668h-7.419l-14.9,16.782,7.514-17.885h11.776l3.394-8.076h-33.538l-3.357,7.991H-495.8l-11.1,26.284h14.816l4.4-4.952h9.719l.272,4.952h7.828l0-.05,4.321-.052,3.114-7.41-.272,7.481h7.562l5.422-6.74-2.865,6.771h7.841l10.6-25.219Zm-35.639,9.829.144,3.9h-3.579Zm32.878,14.121h-5.183l5.3-12.533-.208-.031-10.082,12.533h-5.735l.445-12.258-.233.031-5.092,12.118v.14h-10.223l-.272-4.952h-11.4l-4.4,4.952h-9.409c1.405-.733,3.21-1.627,5.424-2.631l-.8,1.908h.025l2.295-2.585c3.866-1.7,8.8-3.649,14.844-5.65h3.224l-.038-1.027q2.552-.8,5.337-1.6l.532,10.836,5.209-12.4q4.653-1.2,9.872-2.34l-.075,9.734,9.572-11.617q4.325-.782,8.982-1.482Z" transform="translate(507.626 -102.812)"/><path class="c" d="M-405.322,193.371v-.017l-.007.017Z" transform="translate(441.769 -160.997)"/><path class="b" d="M-267.062,111.916h-7.418l-18.785,21.158-4.086-9.2a21.477,21.477,0,0,0,6.4-3.407,16.071,16.071,0,0,0,5.294-6.438c1.335-3.176.882-6.028-1.309-8.247-2.056-2.081-5.11-3.136-9.079-3.136h-16.7l-14.4,34.26,9.906.118,5.072-12.071h3.461l5.448,12.061h15.206l4.4-4.952h9.719l.272,4.952h7.828Zm-39.163-1.093h6.718a6.8,6.8,0,0,1,3.618.781c.286.183.609.391.183,1.4a5.237,5.237,0,0,1-2.706,2.657,10.447,10.447,0,0,1-4.643,1.064h-5.652Zm33.714,24.922-.272-4.952h-11.4l-4.4,4.952h-13.907l-5.448-12.061h-5.024l-5.068,12.061-7.267-.086,8.156-19.411q3.749-.506,7.7-.947l-1.133,2.7h7.511a11.555,11.555,0,0,0,5.159-1.185,6.638,6.638,0,0,0,3.08-2.83q3.937-.274,8.047-.474l0,.008a14.776,14.776,0,0,1-4.9,5.923,19.568,19.568,0,0,1-7.39,3.6l5.455,12.285,19.655-22.138h5.735l1.108,22.56Z" transform="translate(391.432 -102.644)"/><path class="b" d="M-196.447,155.389h7.609l-.306-8.284Zm2.768-1.268,3.436-3.9.144,3.9Z" transform="translate(307.294 -131.246)"/></svg>