<svg xmlns="http://www.w3.org/2000/svg" width="129.87" height="56.852" viewBox="0 0 129.87 56.852"><defs><style>.a{fill:#e54300;}.b{fill:#fff;}.c{fill:#696969;}</style></defs><g transform="translate(-910 -934)"><g transform="translate(910 934)"><path class="a" d="M-181.229,248.573-193.8,263.617l.118-15.044h-8.205l-7.729,18.142-.9-18.017h-7.67l-15.406,17.114,7.77-18.238h12.176l3.509-8.236h-34.677l-3.471,8.149h12.225l-11.473,26.8h15.32l4.546-5.05h10.05l.281,5.05h8.095l0-.051,4.467-.052,3.219-7.557-.281,7.629h7.819l5.606-6.873-2.962,6.9h8.107l10.956-25.717Zm-40.4,14,3.552-3.974.149,3.974Z" transform="translate(248.281 -239.242)"/><path class="a" d="M249.128,248.162h-7.67l-19.423,21.576-4.224-9.383a22.309,22.309,0,0,0,6.613-3.474,16.435,16.435,0,0,0,5.474-6.566c1.38-3.239.912-6.147-1.353-8.41-2.126-2.122-5.284-3.2-9.388-3.2H201.893l-14.884,34.938,10.243.12,5.244-12.309h3.579l5.633,12.3h15.723l4.546-5.05h10.049l.281,5.05H250.4Zm-37.216,4.909h-5.844l2.566-6.024h6.946a7.112,7.112,0,0,1,3.741.8c.3.187.629.4.189,1.432a5.377,5.377,0,0,1-2.8,2.71A10.924,10.924,0,0,1,211.912,253.071Zm26.1,8.964,3.552-3.974.148,3.974Z" transform="translate(-120.533 -238.707)"/><path class="b" d="M258.545,309.973h-5.93l-20.323,22.576-5.64-12.528a20.351,20.351,0,0,0,7.641-3.668,15.113,15.113,0,0,0,5.063-6.04l0-.008q-4.249.2-8.32.483a6.826,6.826,0,0,1-3.184,2.885,12.082,12.082,0,0,1-5.335,1.208h-7.766l1.172-2.751q-4.087.448-7.963.966l-8.433,19.795,7.514.088,5.24-12.3h5.2l5.633,12.3h14.379l4.546-5.05h11.783l.282,5.05h5.587Zm-12.79,13.872,7.552-8.448.316,8.448Z" transform="translate(-131.142 -299.224)"/><path class="b" d="M-153.026,336.6l-9.9,11.847.078-9.926q-5.4,1.153-10.207,2.387l-5.386,12.641v.018h-.009l.008-.018-.55-11.05q-2.881.811-5.518,1.628l.039,1.047H-187.8c-6.246,2.04-11.351,4.033-15.348,5.761l-2.373,2.636h-.025l.829-1.946c-2.289,1.024-4.155,1.935-5.608,2.682h9.729l4.546-5.05h11.783l.281,5.05h10.571v-.143l5.265-12.358.241-.032-.46,12.5h5.93l10.424-12.781.215.032-5.483,12.781h5.359l8.187-19.219Q-148.553,335.8-153.026,336.6Z" transform="translate(216.123 -320.549)"/><path class="a" d="M-181.229,248.573-193.8,263.617l.118-15.044h-8.205l-7.729,18.142-.9-18.017h-7.67l-15.406,17.114,7.77-18.238h12.176l3.509-8.236h-34.677l-3.471,8.149h12.225l-11.473,26.8h15.32l4.546-5.05h10.05l.281,5.05h8.095l0-.051,4.467-.052,3.219-7.557-.281,7.629h7.819l5.606-6.873-2.962,6.9h8.107l10.956-25.717Zm-40.4,14,3.552-3.974.149,3.974Z" transform="translate(248.281 -239.242)"/><path class="a" d="M249.128,248.162h-7.67l-19.423,21.576-4.224-9.383a22.309,22.309,0,0,0,6.613-3.474,16.435,16.435,0,0,0,5.474-6.566c1.38-3.239.912-6.147-1.353-8.41-2.126-2.122-5.284-3.2-9.388-3.2H201.893l-14.884,34.938,10.243.12,5.244-12.309h3.579l5.633,12.3h15.723l4.546-5.05h10.049l.281,5.05H250.4Zm-37.216,4.909h-5.844l2.566-6.024h6.946a7.112,7.112,0,0,1,3.741.8c.3.187.629.4.189,1.432a5.377,5.377,0,0,1-2.8,2.71A10.924,10.924,0,0,1,211.912,253.071Zm26.1,8.964,3.552-3.974.148,3.974Z" transform="translate(-120.533 -238.707)"/><path class="b" d="M258.545,309.973h-5.93l-20.323,22.576-5.64-12.528a20.351,20.351,0,0,0,7.641-3.668,15.113,15.113,0,0,0,5.063-6.04l0-.008q-4.249.2-8.32.483a6.826,6.826,0,0,1-3.184,2.885,12.082,12.082,0,0,1-5.335,1.208h-7.766l1.172-2.751q-4.087.448-7.963.966l-8.433,19.795,7.514.088,5.24-12.3h5.2l5.633,12.3h14.379l4.546-5.05h11.783l.282,5.05h5.587Zm-12.79,13.872,7.552-8.448.316,8.448Z" transform="translate(-131.142 -299.224)"/><path class="b" d="M-153.026,336.6l-9.9,11.847.078-9.926q-5.4,1.153-10.207,2.387l-5.386,12.641v.018h-.009l.008-.018-.55-11.05q-2.881.811-5.518,1.628l.039,1.047H-187.8c-6.246,2.04-11.351,4.033-15.348,5.761l-2.373,2.636h-.025l.829-1.946c-2.289,1.024-4.155,1.935-5.608,2.682h9.729l4.546-5.05h11.783l.281,5.05h10.571v-.143l5.265-12.358.241-.032-.46,12.5h5.93l10.424-12.781.215.032-5.483,12.781h5.359l8.187-19.219Q-148.553,335.8-153.026,336.6Z" transform="translate(216.123 -320.549)"/></g><g transform="translate(921.005 975.365)"><g transform="translate(0 0)"><g transform="translate(0 0)"><path class="c" d="M202.005,454.338l-1.719,4.961-1.787,0-.746,2.154,1.786.008-2.431,7.015,2.058.008,4.9-14.134Z" transform="translate(-189.729 -454.002)"/><path class="c" d="M187.306,465.38a3.254,3.254,0,0,1-.436-1.209,5.489,5.489,0,0,1,.02-1.622,12.557,12.557,0,0,1,.6-2.275l.371-1.069,2.088.008.692-2-6.376-.024-.692,2,2.089.009-.371,1.067a13.873,13.873,0,0,1-1.057,2.386,11.7,11.7,0,0,1-1.248,1.784,10.494,10.494,0,0,1-1.428,1.331,18.379,18.379,0,0,1-1.56,1.073l1.093,1.454c.283-.172.593-.378.931-.619s.674-.5,1.008-.79.649-.582.946-.884a6.259,6.259,0,0,0,.75-.921,3.407,3.407,0,0,0,.449,1.607,5.641,5.641,0,0,0,.944,1.28l1.952-1.583A6.954,6.954,0,0,1,187.306,465.38Z" transform="translate(-179.994 -455.624)"/><path class="c" d="M208.8,453.559l-5.254,15.168,2.056.006,5.256-15.167Z" transform="translate(-193.39 -453.559)"/><path class="c" d="M214.866,474.833l5.947.022-1.689,4.879,2.152.008,1.69-4.879,5.93.022.686-1.983-14.028-.051Z" transform="translate(-199.83 -464.533)"/><path class="c" d="M233.995,454.919l-10.906-.039-.68,1.964,4.24.015a3.5,3.5,0,0,1-1,1.049,10.029,10.029,0,0,1-1.528.91,12.945,12.945,0,0,1-1.767.7,9.994,9.994,0,0,1-1.708.391l.67,1.66a12.077,12.077,0,0,0,1.673-.41,14.982,14.982,0,0,0,1.657-.633,12.014,12.014,0,0,0,1.445-.789,5.7,5.7,0,0,0,1.1-.893,4.306,4.306,0,0,0,1.718,1.82,8.633,8.633,0,0,0,2.266.921l1.81-1.633a6.224,6.224,0,0,1-1.319-.385,6.108,6.108,0,0,1-1.251-.677,4.038,4.038,0,0,1-.937-.909,1.829,1.829,0,0,1-.372-1.115l4.209.015Z" transform="translate(-203.117 -454.31)"/><path class="c" d="M279.589,457.289l-1.849-.007,1.206-3.482-2.137-.008-3.01,8.687,2.137.008,1.123-3.241,1.849.008Z" transform="translate(-233.352 -453.691)"/><path class="c" d="M250.356,481.024l10.06.034,1.964-5.669-10.058-.036Zm3.4-3.681,5.818.02-.591,1.707-5.818-.019Z" transform="translate(-220.017 -465.956)"/><path class="c" d="M254.361,462.952c.564,0,1.156,0,1.775-.012s1.164-.024,1.628-.045q.842-.032,1.569-.081t1.432-.15l.627-1.811c-.236.033-.536.067-.9.1s-.753.06-1.153.081-.8.039-1.193.057-.73.021-1.005.021l-2.169-.007.359-1.035,5.1.02.621-1.793-5.1-.019.352-1.016,5.261.019.645-1.861-7.381-.027-2.616,7.548.683.012C253.3,462.961,253.794,462.961,254.361,462.952Z" transform="translate(-221.071 -454.603)"/><path class="c" d="M292.352,465.419q-.406.067-1.077.135c-.445.045-.905.09-1.378.133s-.943.077-1.375.1-.768.031-1,.031l-1.5-.006.878-2.534,4.686.016L293.8,456.9,287,456.875l-.688,1.982,4.687.016-.848,2.447-4.687-.016-2.239,6.465,2.79.009c.477,0,.993-.009,1.542-.028s1.084-.054,1.6-.1.994-.093,1.438-.142.807-.1,1.093-.16Z" transform="translate(-238.712 -455.445)"/><path class="c" d="M307.73,459.747l2.019-5.824-2.137-.009-5.255,15.168,2.137.008,2.485-7.172,1.977.009.752-2.172Z" transform="translate(-249.596 -453.761)"/><path class="c" d="M335.08,460.23l1.515,0-1.715,4.948,2.057.006,3.66-10.566-2.056-.008-1.248,3.6-1.515-.006Z" transform="translate(-268.097 -454.16)"/><path class="c" d="M320.888,459.294l-1.791,5.171,2.439.009c.3,0,.627-.008.991-.024s.722-.033,1.08-.057.676-.045.984-.072.567-.059.782-.093l.669-1.93a13.6,13.6,0,0,1-1.372.159q-.8.058-1.655.054l-1.115,0,.465-1.344,3.157.01,1.814-5.24-5.276-.018-.681,1.967,3.14.009-.489,1.415Z" transform="translate(-259.118 -454.9)"/><path class="c" d="M345.5,454.042l-3.87,11.169,2.041.008,3.868-11.169Z" transform="translate(-271.936 -453.834)"/><path class="c" d="M322.648,477.764l-2.153-.007-1.582,4.567,10.888.039.687-1.981-8.736-.033Z" transform="translate(-259.014 -467.323)"/><path class="c" d="M359.69,458.938l8.338.03.68-1.966-10.506-.036-2.961,8.549,10.714.038.68-1.965-8.544-.03.46-1.328,8.273.03.675-1.948-8.273-.027Z" transform="translate(-279.677 -455.497)"/><path class="c" d="M348.205,482.839l14.029.049.687-1.982-14.029-.049Z" transform="translate(-275.676 -469.087)"/><path class="c" d="M411.962,454.288l-2.12-.006-5.254,15.167,2.12.008,2.454-7.084,1.977.006.729-2.1-1.978-.008Z" transform="translate(-307.747 -453.97)"/><path class="c" d="M395.752,457.827l-7.158-.027-.681,1.965,4.655.018c-.116.242-.245.517-.391.827a8.28,8.28,0,0,1-.437.827,8.567,8.567,0,0,1-.923.151c-.372.046-.782.084-1.231.118s-.924.074-1.419.087-.977.024-1.444.022l-.633,1.827q1.307,0,2.372-.1a17.245,17.245,0,0,0,1.89-.269,8.166,8.166,0,0,1-1.262,1.343,19.029,19.029,0,0,1-1.654,1.272,20.533,20.533,0,0,1-1.756,1.08,12.619,12.619,0,0,1-1.556.736l1.164,1.385a20.7,20.7,0,0,0,3.247-1.792,18.587,18.587,0,0,0,2.931-2.448,19.233,19.233,0,0,0,2.445-3.14A18.913,18.913,0,0,0,395.752,457.827Z" transform="translate(-296.107 -455.971)"/></g></g></g></g></svg>