<svg xmlns="http://www.w3.org/2000/svg" width="31.839" height="31.839" viewBox="0 0 31.839 31.839"><defs><style>.a{fill:#fff;}</style></defs><path class="a" d="M-163.083-45A15.938,15.938,0,0,0-179-29.081a15.938,15.938,0,0,0,15.919,15.92,15.938,15.938,0,0,0,15.919-15.92A15.937,15.937,0,0,0-163.083-45Zm8.2,27.007a12.245,12.245,0,0,1-8.2,3.141,12.241,12.241,0,0,1-8.2-3.141c0-.039-.006-.078-.009-.116.017-3.853,3.676-7.011,8.171-7.045h.068c4.5.035,8.155,3.194,8.17,7.048C-154.88-18.068-154.883-18.031-154.886-17.993Zm1.647-.808c-.393-4.208-4.2-7.6-8.965-7.991v-.041h-.89l-.867,0v.037c-4.766.391-8.573,3.784-8.966,7.991a14.2,14.2,0,0,1-4.4-10.28,14.26,14.26,0,0,1,14.244-14.243,14.26,14.26,0,0,1,14.244,14.243A14.2,14.2,0,0,1-153.239-18.8Z" transform="translate(179.002 45)"/><path class="a" d="M-143.429-26.094A5.065,5.065,0,0,0-148.59-20.9a5.067,5.067,0,0,0,5.161,5.2,5.067,5.067,0,0,0,5.16-5.2A5.064,5.064,0,0,0-143.429-26.094Zm0,8.72a3.39,3.39,0,0,1-3.486-3.525,3.388,3.388,0,0,1,3.486-3.519,3.388,3.388,0,0,1,3.485,3.519A3.39,3.39,0,0,1-143.429-17.374Z" transform="translate(159.349 32.782)"/></svg>