<svg xmlns="http://www.w3.org/2000/svg" width="27.438" height="24.561" viewBox="0 0 27.438 24.561"><defs><style>.a,.b{fill:#e54300;}.a{stroke:#e54300;fill-rule:evenodd;}</style></defs><g transform="translate(747.122 -1466.953)"><path class="a" d="M-720.5,1487.7l-10.978-19.147a2.2,2.2,0,0,0-1.927-1.1,2.2,2.2,0,0,0-1.927,1.1l-10.978,19.147a2.23,2.23,0,0,0,1.927,3.314h9.55a.471.471,0,0,0,.471-.471h0a.471.471,0,0,0-.471-.471h-9.55a1.257,1.257,0,0,1-1.11-1.9l10.978-19.149a1.271,1.271,0,0,1,1.11-.655,1.27,1.27,0,0,1,1.11.655l10.978,19.149a1.257,1.257,0,0,1-1.11,1.9h-9.4a.471.471,0,0,0-.471.471h0a.471.471,0,0,0,.471.471h9.4A2.23,2.23,0,0,0-720.5,1487.7Z"/><path class="b" d="M-688,1494.893a1.421,1.421,0,0,0-1.414,1.414v7.54a1.421,1.421,0,0,0,1.414,1.414,1.421,1.421,0,0,0,1.414-1.414v-7.54A1.421,1.421,0,0,0-688,1494.893Zm0,.943a.46.46,0,0,1,.471.471v7.54a.46.46,0,0,1-.471.471.46.46,0,0,1-.471-.471v-7.54A.46.46,0,0,1-688,1495.836Z" transform="translate(-45.402 -21.787)"/><path class="b" d="M-688,1552.08a1.421,1.421,0,0,0-1.414,1.414,1.421,1.421,0,0,0,1.414,1.414,1.421,1.421,0,0,0,1.414-1.414A1.421,1.421,0,0,0-688,1552.08Zm0,.943a.464.464,0,0,1,.471.471.464.464,0,0,1-.471.471.464.464,0,0,1-.471-.471A.464.464,0,0,1-688,1553.022Z" transform="translate(-45.402 -67.193)"/></g></svg>