<svg xmlns="http://www.w3.org/2000/svg" width="142.493" height="170.893" viewBox="0 0 142.493 170.893"><defs><style>.a{fill:#db830f;}.b{fill:#e54300;}</style></defs><g transform="translate(84.769 50.307)"><path class="a" d="M65.372,88.628a2.346,2.346,0,1,1-2.348,2.346A2.345,2.345,0,0,1,65.372,88.628Z" transform="translate(-63.023 27.267)"/><path class="a" d="M65.372,80.419a2.347,2.347,0,1,1-2.348,2.348A2.347,2.347,0,0,1,65.372,80.419Z" transform="translate(-63.023 16.158)"/><path class="a" d="M65.372,72.211a2.347,2.347,0,1,1-2.348,2.346A2.347,2.347,0,0,1,65.372,72.211Z" transform="translate(-63.023 5.051)"/><path class="a" d="M65.372,64a2.346,2.346,0,1,1-2.348,2.346A2.345,2.345,0,0,1,65.372,64Z" transform="translate(-63.023 -6.056)"/><path class="a" d="M65.372,55.794a2.347,2.347,0,1,1-2.348,2.348A2.347,2.347,0,0,1,65.372,55.794Z" transform="translate(-63.023 -17.164)"/><path class="a" d="M65.372,47.586a2.347,2.347,0,1,1-2.348,2.346A2.345,2.345,0,0,1,65.372,47.586Z" transform="translate(-63.023 -28.271)"/><path class="a" d="M65.372,39.378a2.346,2.346,0,1,1-2.348,2.346A2.345,2.345,0,0,1,65.372,39.378Z" transform="translate(-63.023 -39.378)"/><path class="a" d="M72.883,88.628a2.346,2.346,0,1,1-2.348,2.346A2.347,2.347,0,0,1,72.883,88.628Z" transform="translate(-52.858 27.267)"/><path class="a" d="M72.883,80.419a2.347,2.347,0,1,1-2.348,2.348A2.349,2.349,0,0,1,72.883,80.419Z" transform="translate(-52.858 16.158)"/><path class="a" d="M72.883,72.211a2.347,2.347,0,1,1-2.348,2.346A2.348,2.348,0,0,1,72.883,72.211Z" transform="translate(-52.858 5.051)"/><path class="a" d="M72.883,64a2.346,2.346,0,1,1-2.348,2.346A2.347,2.347,0,0,1,72.883,64Z" transform="translate(-52.858 -6.056)"/><path class="a" d="M72.883,55.794a2.347,2.347,0,1,1-2.348,2.348A2.349,2.349,0,0,1,72.883,55.794Z" transform="translate(-52.858 -17.164)"/><path class="a" d="M72.883,47.586a2.347,2.347,0,1,1-2.348,2.346A2.347,2.347,0,0,1,72.883,47.586Z" transform="translate(-52.858 -28.271)"/><path class="a" d="M72.883,39.378a2.346,2.346,0,1,1-2.348,2.346A2.347,2.347,0,0,1,72.883,39.378Z" transform="translate(-52.858 -39.378)"/><path class="a" d="M80.393,88.628a2.346,2.346,0,1,1-2.346,2.346A2.347,2.347,0,0,1,80.393,88.628Z" transform="translate(-42.693 27.267)"/><circle class="a" cx="2.347" cy="2.347" r="2.347" transform="translate(35.355 96.578)"/><circle class="a" cx="2.347" cy="2.347" r="2.347" transform="translate(35.355 77.262)"/><circle class="a" cx="2.347" cy="2.347" r="2.347" transform="translate(35.355 57.947)"/><path class="a" d="M80.393,55.794a2.347,2.347,0,1,1-2.346,2.348A2.349,2.349,0,0,1,80.393,55.794Z" transform="translate(-42.693 -17.164)"/><path class="a" d="M80.393,47.586a2.347,2.347,0,1,1-2.346,2.346A2.347,2.347,0,0,1,80.393,47.586Z" transform="translate(-42.693 -28.271)"/><path class="a" d="M80.393,39.378a2.346,2.346,0,1,1-2.346,2.346A2.347,2.347,0,0,1,80.393,39.378Z" transform="translate(-42.693 -39.378)"/><path class="a" d="M87.905,88.628a2.346,2.346,0,1,1-2.346,2.346A2.345,2.345,0,0,1,87.905,88.628Z" transform="translate(-32.528 27.267)"/><path class="a" d="M87.905,80.419a2.347,2.347,0,1,1-2.346,2.348A2.347,2.347,0,0,1,87.905,80.419Z" transform="translate(-32.528 16.158)"/><path class="a" d="M87.905,72.211a2.347,2.347,0,1,1-2.346,2.346A2.347,2.347,0,0,1,87.905,72.211Z" transform="translate(-32.528 5.051)"/><path class="a" d="M87.905,64a2.346,2.346,0,1,1-2.346,2.346A2.345,2.345,0,0,1,87.905,64Z" transform="translate(-32.528 -6.056)"/><path class="a" d="M87.905,55.794a2.347,2.347,0,1,1-2.346,2.348A2.347,2.347,0,0,1,87.905,55.794Z" transform="translate(-32.528 -17.164)"/><path class="a" d="M87.905,47.586a2.347,2.347,0,1,1-2.346,2.346A2.345,2.345,0,0,1,87.905,47.586Z" transform="translate(-32.528 -28.271)"/><path class="a" d="M87.905,39.378a2.346,2.346,0,1,1-2.346,2.346A2.345,2.345,0,0,1,87.905,39.378Z" transform="translate(-32.528 -39.378)"/></g><path class="b" d="M73.358,159.191a2.389,2.389,0,0,0,3.059-1.647l.941-3.059h5.412l.939,3.059a2.34,2.34,0,0,0,2.353,1.647,2.432,2.432,0,0,0,2.353-3.059l-5.883-18.826a2.338,2.338,0,0,0-2.353-1.647,2.559,2.559,0,0,0-2.353,1.647l-5.883,18.826A2.451,2.451,0,0,0,73.358,159.191Zm7.766-9.413H78.77l1.177-3.765Zm-9.413-11.766a2.223,2.223,0,0,1-2.353,2.353H62.3v4.706H67a2.353,2.353,0,0,1,0,4.706H62.3v7.06a2.353,2.353,0,1,1-4.706,0V138.013a2.223,2.223,0,0,1,2.353-2.353h9.413A2.223,2.223,0,0,1,71.711,138.013ZM97.6,159.191a7.429,7.429,0,0,0,4.471-1.647l.939.941a2.33,2.33,0,0,0,3.294-3.294l-1.883-1.883a10.192,10.192,0,0,1,.235-1.177v-9.413a7.06,7.06,0,0,0-14.119,0v9.413A6.937,6.937,0,0,0,97.6,159.191Zm-2.353-16.472a2.353,2.353,0,0,1,4.706,0v7.06a2.136,2.136,0,0,0-1.647.706,2.279,2.279,0,0,0,0,3.294l.471.471c-.471,0-.706.235-1.177.235a2.223,2.223,0,0,1-2.353-2.353Zm39.3-95.775L106.3,18.706A2.136,2.136,0,0,0,104.655,18H34.06A6.934,6.934,0,0,0,27,25.06V161.544a6.934,6.934,0,0,0,7.06,7.06h94.128a6.934,6.934,0,0,0,7.06-7.06V48.591A2.136,2.136,0,0,0,134.541,46.944ZM107.008,26l20.237,20.237H109.362a2.223,2.223,0,0,1-2.353-2.353ZM130.54,161.544a2.223,2.223,0,0,1-2.353,2.353H34.06a2.223,2.223,0,0,1-2.353-2.353V130.953H52.885a2.353,2.353,0,1,0,0-4.706H31.706V25.06a2.223,2.223,0,0,1,2.353-2.353H102.3V43.885a6.934,6.934,0,0,0,7.06,7.06H130.54v75.3H74.064a2.353,2.353,0,0,0,0,4.706H130.54ZM59.945,128.6a2.223,2.223,0,0,1,2.353-2.353h2.353a2.353,2.353,0,1,1,0,4.706H62.3A2.223,2.223,0,0,1,59.945,128.6ZM81.123,98.008a7.06,7.06,0,1,0,7.06,7.06A6.934,6.934,0,0,0,81.123,98.008Zm0,9.413a2.353,2.353,0,1,1,2.353-2.353A2.223,2.223,0,0,1,81.123,107.421ZM67.24,72.123A7.3,7.3,0,0,0,74.3,66.24a7.11,7.11,0,0,1,7.06-5.883,7.036,7.036,0,0,1,5.412,2.589,6.652,6.652,0,0,1,1.412,5.883,7.63,7.63,0,0,1-7.53,5.648,6.577,6.577,0,0,0-6.589,6.589V88.6a7.06,7.06,0,0,0,14.119,0V87.419a20.641,20.641,0,0,0,9.883-7.295,22.558,22.558,0,0,0,4-16A21.244,21.244,0,0,0,84.653,46.474a17.811,17.811,0,0,0-3.53-.235h0A21.234,21.234,0,0,0,60.18,63.887a7.278,7.278,0,0,0,7.06,8.236ZM81.123,50.945a11.457,11.457,0,0,1,2.824.235A17.049,17.049,0,0,1,97.6,64.828,16.435,16.435,0,0,1,83.712,83.654V88.6a2.353,2.353,0,0,1-4.706,0v-7.53a1.856,1.856,0,0,1,1.883-1.883,12.116,12.116,0,0,0,12-9.413A11.783,11.783,0,0,0,81.359,55.651,11.661,11.661,0,0,0,69.828,65.3a2.5,2.5,0,0,1-2.353,2.118,2.287,2.287,0,0,1-2.353-2.589A15.85,15.85,0,0,1,81.123,50.945Z" transform="translate(-27 -18)"/></svg>