<svg xmlns="http://www.w3.org/2000/svg" width="176.531" height="155.733" viewBox="0 0 176.531 155.733"><defs><style>.a{fill:#db830f;}.b{fill:#e54300;}</style></defs><g transform="translate(674.525 -1019.589)"><g transform="translate(-623.654 1115.17)"><path class="a" d="M-516.933,1160.53a2.446,2.446,0,0,1,2.446-2.445,2.445,2.445,0,0,1,2.445,2.445,2.446,2.446,0,0,1-2.445,2.446A2.447,2.447,0,0,1-516.933,1160.53Z" transform="translate(637.702 -1102.824)"/><path class="a" d="M-535.414,1160.53a2.446,2.446,0,0,1,2.446-2.445,2.445,2.445,0,0,1,2.445,2.445,2.446,2.446,0,0,1-2.445,2.446A2.447,2.447,0,0,1-535.414,1160.53Z" transform="translate(636.055 -1102.824)"/><path class="a" d="M-553.894,1160.53a2.445,2.445,0,0,1,2.445-2.445A2.445,2.445,0,0,1-549,1160.53a2.446,2.446,0,0,1-2.445,2.446A2.446,2.446,0,0,1-553.894,1160.53Z" transform="translate(634.408 -1102.824)"/><path class="a" d="M-572.375,1160.53a2.445,2.445,0,0,1,2.445-2.445,2.445,2.445,0,0,1,2.445,2.445,2.446,2.446,0,0,1-2.445,2.446A2.446,2.446,0,0,1-572.375,1160.53Z" transform="translate(632.76 -1102.824)"/><path class="a" d="M-590.856,1160.53a2.445,2.445,0,0,1,2.445-2.445,2.446,2.446,0,0,1,2.446,2.445,2.447,2.447,0,0,1-2.446,2.446A2.446,2.446,0,0,1-590.856,1160.53Z" transform="translate(631.113 -1102.824)"/><path class="a" d="M-609.337,1160.53a2.445,2.445,0,0,1,2.445-2.445,2.446,2.446,0,0,1,2.446,2.445,2.447,2.447,0,0,1-2.446,2.446A2.446,2.446,0,0,1-609.337,1160.53Z" transform="translate(629.465 -1102.824)"/><path class="a" d="M-627.818,1160.53a2.446,2.446,0,0,1,2.446-2.445,2.445,2.445,0,0,1,2.445,2.445,2.446,2.446,0,0,1-2.445,2.446A2.447,2.447,0,0,1-627.818,1160.53Z" transform="translate(627.818 -1102.824)"/><path class="a" d="M-516.933,1143.618a2.447,2.447,0,0,1,2.446-2.446,2.446,2.446,0,0,1,2.445,2.446,2.445,2.445,0,0,1-2.445,2.445A2.446,2.446,0,0,1-516.933,1143.618Z" transform="translate(637.702 -1104.332)"/><path class="a" d="M-535.414,1143.618a2.447,2.447,0,0,1,2.446-2.446,2.446,2.446,0,0,1,2.445,2.446,2.445,2.445,0,0,1-2.445,2.445A2.446,2.446,0,0,1-535.414,1143.618Z" transform="translate(636.055 -1104.332)"/><path class="a" d="M-553.894,1143.618a2.446,2.446,0,0,1,2.445-2.446,2.446,2.446,0,0,1,2.445,2.446,2.445,2.445,0,0,1-2.445,2.445A2.445,2.445,0,0,1-553.894,1143.618Z" transform="translate(634.408 -1104.332)"/><path class="a" d="M-609.337,1143.618a2.446,2.446,0,0,1,2.445-2.446,2.447,2.447,0,0,1,2.446,2.446,2.446,2.446,0,0,1-2.446,2.445A2.445,2.445,0,0,1-609.337,1143.618Z" transform="translate(629.465 -1104.332)"/><path class="a" d="M-627.818,1143.618a2.447,2.447,0,0,1,2.446-2.446,2.446,2.446,0,0,1,2.445,2.446,2.445,2.445,0,0,1-2.445,2.445A2.446,2.446,0,0,1-627.818,1143.618Z" transform="translate(627.818 -1104.332)"/><path class="a" d="M-516.933,1126.705a2.446,2.446,0,0,1,2.446-2.445,2.445,2.445,0,0,1,2.445,2.445,2.445,2.445,0,0,1-2.445,2.445A2.446,2.446,0,0,1-516.933,1126.705Z" transform="translate(637.702 -1105.839)"/><circle class="a" cx="2.445" cy="2.445" r="2.445" transform="translate(100.642 18.42)"/><circle class="a" cx="2.445" cy="2.445" r="2.445" transform="translate(80.513 18.42)"/><path class="a" d="M-609.337,1126.705a2.445,2.445,0,0,1,2.445-2.445,2.446,2.446,0,0,1,2.446,2.445,2.446,2.446,0,0,1-2.446,2.445A2.445,2.445,0,0,1-609.337,1126.705Z" transform="translate(629.465 -1105.839)"/><path class="a" d="M-627.818,1126.705a2.446,2.446,0,0,1,2.446-2.445,2.445,2.445,0,0,1,2.445,2.445,2.445,2.445,0,0,1-2.445,2.445A2.446,2.446,0,0,1-627.818,1126.705Z" transform="translate(627.818 -1105.839)"/><path class="a" d="M-516.933,1109.792a2.446,2.446,0,0,1,2.446-2.445,2.445,2.445,0,0,1,2.445,2.445,2.446,2.446,0,0,1-2.445,2.446A2.447,2.447,0,0,1-516.933,1109.792Z" transform="translate(637.702 -1107.347)"/><path class="a" d="M-535.414,1109.792a2.446,2.446,0,0,1,2.446-2.445,2.445,2.445,0,0,1,2.445,2.445,2.446,2.446,0,0,1-2.445,2.446A2.447,2.447,0,0,1-535.414,1109.792Z" transform="translate(636.055 -1107.347)"/><path class="a" d="M-553.894,1109.792a2.445,2.445,0,0,1,2.445-2.445,2.445,2.445,0,0,1,2.445,2.445,2.446,2.446,0,0,1-2.445,2.446A2.446,2.446,0,0,1-553.894,1109.792Z" transform="translate(634.408 -1107.347)"/><path class="a" d="M-609.337,1109.792a2.445,2.445,0,0,1,2.445-2.445,2.446,2.446,0,0,1,2.446,2.445,2.447,2.447,0,0,1-2.446,2.446A2.446,2.446,0,0,1-609.337,1109.792Z" transform="translate(629.465 -1107.347)"/><path class="a" d="M-627.818,1109.792a2.446,2.446,0,0,1,2.446-2.445,2.445,2.445,0,0,1,2.445,2.445,2.446,2.446,0,0,1-2.445,2.446A2.447,2.447,0,0,1-627.818,1109.792Z" transform="translate(627.818 -1107.347)"/></g><path class="b" d="M-658.607,1084.262v-27.483a7.968,7.968,0,0,0-7.958-7.959,7.968,7.968,0,0,0-7.959,7.959v50.029a2.271,2.271,0,0,0,.485,1.4l19.981,25.535v17.408a2.272,2.272,0,0,0,2.274,2.274h20.466a2.272,2.272,0,0,0,2.274-2.274v-36.385a2.264,2.264,0,0,0-.667-1.608Zm25.014,64.615h-15.918v-15.919a2.27,2.27,0,0,0-.485-1.4l-19.981-25.535v-49.243a3.415,3.415,0,0,1,3.411-3.411,3.416,3.416,0,0,1,3.411,3.411V1085.2a2.267,2.267,0,0,0,.666,1.608l3.3,3.3a8.722,8.722,0,0,0-6.235,8.348,8.654,8.654,0,0,0,2.549,6.156l14.036,14.035,3.215-3.215-14.036-14.036a4.186,4.186,0,0,1-1.217-2.94,4.162,4.162,0,0,1,4.157-4.157,4.176,4.176,0,0,1,2.931,1.21l20.2,20.2Z" transform="translate(0 2.606)"/><path class="b" d="M-553.488,1048.819a7.968,7.968,0,0,0-7.958,7.959v27.483l-28.9,28.9a2.264,2.264,0,0,0-.667,1.608v36.385a2.272,2.272,0,0,0,2.274,2.274h20.466a2.272,2.272,0,0,0,2.274-2.274v-17.408l19.981-25.535a2.27,2.27,0,0,0,.485-1.4v-50.029A7.968,7.968,0,0,0-553.488,1048.819Zm3.411,57.2-19.981,25.535a2.27,2.27,0,0,0-.485,1.4v15.919h-15.918v-33.169l20.2-20.2a4.178,4.178,0,0,1,2.931-1.21,4.161,4.161,0,0,1,4.157,4.157,4.186,4.186,0,0,1-1.217,2.94l-14.036,14.036,3.215,3.215,14.036-14.035a8.65,8.65,0,0,0,2.549-6.156,8.721,8.721,0,0,0-6.235-8.348l3.3-3.3a2.268,2.268,0,0,0,.667-1.608v-28.425a3.415,3.415,0,0,1,3.41-3.411,3.415,3.415,0,0,1,3.411,3.411Z" transform="translate(7.445 2.606)"/><path class="b" d="M-575.242,1095.682a2.275,2.275,0,0,0-.152-2.354l-10.368-14.816a33.991,33.991,0,0,0,10.777-24.814,34.149,34.149,0,0,0-34.111-34.11,34.148,34.148,0,0,0-34.11,34.11,33.99,33.99,0,0,0,10.776,24.814l-10.367,14.816a2.271,2.271,0,0,0-.153,2.354,2.274,2.274,0,0,0,2.017,1.223h12.24l6.194,12.387a2.269,2.269,0,0,0,2.033,1.258.639.639,0,0,0,.077,0,2.271,2.271,0,0,0,2.021-1.4l8.9-21.359c.125,0,.245.018.37.018s.246-.018.37-.018l8.9,21.359a2.265,2.265,0,0,0,2.023,1.4.62.62,0,0,0,.077,0,2.274,2.274,0,0,0,2.035-1.258l6.193-12.387h12.239A2.273,2.273,0,0,0-575.242,1095.682Zm-63.416-41.983a29.6,29.6,0,0,1,29.563-29.563,29.6,29.6,0,0,1,29.563,29.563,29.6,29.6,0,0,1-29.563,29.563A29.6,29.6,0,0,1-638.659,1053.7Zm18,49.117-4.6-9.2a2.278,2.278,0,0,0-2.036-1.258h-9.278l7.659-10.945a33.893,33.893,0,0,0,14.686,5.969Zm29.751-10.459a2.276,2.276,0,0,0-2.034,1.258l-4.6,9.2-6.434-15.434a33.877,33.877,0,0,0,14.686-5.969l7.659,10.945Z" transform="translate(2.792)"/><rect class="b" width="4.548" height="4.548" transform="translate(-608.578 1071.891)"/><rect class="b" width="4.548" height="4.548" transform="translate(-599.482 1071.891)"/><rect class="b" width="4.548" height="4.548" transform="translate(-617.674 1071.891)"/><path class="b" d="M-602.539,1044.936h-5.228v-5.228a3.277,3.277,0,0,0-3.267-3.267,3.209,3.209,0,0,0-3.267,3.267v5.228h-5.119a3.277,3.277,0,0,0-3.267,3.267,3.277,3.277,0,0,0,3.267,3.267h5.228v5.228a3.277,3.277,0,0,0,3.267,3.267,3.209,3.209,0,0,0,3.267-3.267v-5.228h5.228a3.277,3.277,0,0,0,3.267-3.267A3.529,3.529,0,0,0-602.539,1044.936Z" transform="translate(4.621 1.502)"/></g></svg>