<svg xmlns="http://www.w3.org/2000/svg" width="184.166" height="185.451" viewBox="0 0 184.166 185.451"><defs><style>.a{fill:#db830f;}.b,.c{fill:#e54300;}.b{stroke:#e54300;stroke-width:2px;}.d{fill:#ffdacb;}</style></defs><g transform="translate(116.726 13.022)"><g transform="translate(-45.81 -13.022)"><path class="a" d="M-38.655,10.814a2.2,2.2,0,0,1,2.2-2.206,2.2,2.2,0,0,1,2.206,2.2,2.2,2.2,0,0,1-2.2,2.206h0A2.207,2.207,0,0,1-38.655,10.814Z" transform="translate(147.496 41.195)"/><path class="a" d="M-46.533,10.812a2.2,2.2,0,0,1,2.2-2.2,2.205,2.205,0,0,1,2.2,2.2,2.205,2.205,0,0,1-2.2,2.2,2.2,2.2,0,0,1-2.2-2.2Z" transform="translate(137.235 41.196)"/><path class="a" d="M-54.412,10.814a2.2,2.2,0,0,1,2.2-2.206,2.2,2.2,0,0,1,2.2,2.2,2.2,2.2,0,0,1-2.2,2.206,2.2,2.2,0,0,1-2.206-2.2Z" transform="translate(126.972 41.195)"/><path class="a" d="M-70.169,10.811a2.2,2.2,0,0,1,2.2-2.2,2.2,2.2,0,0,1,2.2,2.2,2.2,2.2,0,0,1-2.2,2.2,2.2,2.2,0,0,1-2.2-2.2Z" transform="translate(106.449 41.197)"/><path class="a" d="M-38.655,3.6a2.2,2.2,0,0,1,2.206-2.2,2.2,2.2,0,0,1,2.2,2.2,2.2,2.2,0,0,1-2.206,2.2A2.206,2.206,0,0,1-38.655,3.6Z" transform="translate(147.496 31.805)"/><path class="a" d="M-46.533,3.6a2.205,2.205,0,0,1,2.206-2.2,2.207,2.207,0,0,1,2.2,2.206,2.2,2.2,0,0,1-2.2,2.2,2.2,2.2,0,0,1-2.2-2.206Z" transform="translate(137.235 31.805)"/><path class="a" d="M-54.412,3.6a2.2,2.2,0,0,1,2.206-2.2,2.2,2.2,0,0,1,2.2,2.2,2.2,2.2,0,0,1-2.2,2.2A2.206,2.206,0,0,1-54.412,3.6Z" transform="translate(126.972 31.805)"/><path class="a" d="M-38.655-3.606a2.206,2.206,0,0,1,2.2-2.206,2.2,2.2,0,0,1,2.206,2.2,2.2,2.2,0,0,1-2.2,2.206h0A2.208,2.208,0,0,1-38.655-3.606Z" transform="translate(147.496 22.413)"/><circle class="a" cx="2.204" cy="2.204" r="2.204" transform="translate(90.701 16.603)"/><circle class="a" cx="2.204" cy="2.204" r="2.204" transform="translate(72.56 16.603)"/><circle class="a" cx="2.204" cy="2.204" r="2.204" transform="translate(54.421 16.603)"/><path class="a" d="M-70.169-3.609a2.2,2.2,0,0,1,2.2-2.2,2.2,2.2,0,0,1,2.2,2.2,2.2,2.2,0,0,1-2.2,2.2h0A2.2,2.2,0,0,1-70.169-3.609Z" transform="translate(106.449 22.416)"/><path class="a" d="M-78.048-3.606a2.2,2.2,0,0,1,2.2-2.206,2.2,2.2,0,0,1,2.206,2.2,2.2,2.2,0,0,1-2.2,2.206A2.2,2.2,0,0,1-78.048-3.606Z" transform="translate(96.187 22.413)"/><path class="a" d="M-85.926-3.608a2.2,2.2,0,0,1,2.2-2.2,2.2,2.2,0,0,1,2.2,2.2,2.2,2.2,0,0,1-2.2,2.2A2.205,2.205,0,0,1-85.926-3.608Z" transform="translate(85.926 22.414)"/><path class="a" d="M-38.655-10.816a2.2,2.2,0,0,1,2.2-2.206,2.2,2.2,0,0,1,2.206,2.2,2.2,2.2,0,0,1-2.2,2.206h0A2.208,2.208,0,0,1-38.655-10.816Z" transform="translate(147.496 13.022)"/><path class="a" d="M-46.533-10.818a2.2,2.2,0,0,1,2.2-2.2,2.205,2.205,0,0,1,2.2,2.2,2.205,2.205,0,0,1-2.2,2.2A2.205,2.205,0,0,1-46.533-10.818Z" transform="translate(137.235 13.023)"/><path class="a" d="M-54.412-10.816a2.2,2.2,0,0,1,2.2-2.206,2.2,2.2,0,0,1,2.2,2.2,2.2,2.2,0,0,1-2.2,2.206h0A2.207,2.207,0,0,1-54.412-10.816Z" transform="translate(126.972 13.022)"/><path class="a" d="M-62.291-10.816a2.2,2.2,0,0,1,2.2-2.206,2.206,2.206,0,0,1,2.206,2.2,2.2,2.2,0,0,1-2.2,2.206h0A2.208,2.208,0,0,1-62.291-10.816Z" transform="translate(116.71 13.022)"/><path class="a" d="M-70.169-10.819a2.2,2.2,0,0,1,2.2-2.2,2.2,2.2,0,0,1,2.2,2.2,2.2,2.2,0,0,1-2.2,2.2A2.2,2.2,0,0,1-70.169-10.819Z" transform="translate(106.449 13.025)"/><path class="a" d="M-78.048-10.816a2.2,2.2,0,0,1,2.2-2.206,2.2,2.2,0,0,1,2.206,2.2,2.2,2.2,0,0,1-2.2,2.206h0A2.205,2.205,0,0,1-78.048-10.816Z" transform="translate(96.187 13.022)"/><path class="a" d="M-85.926-10.818a2.2,2.2,0,0,1,2.2-2.2,2.2,2.2,0,0,1,2.2,2.2,2.2,2.2,0,0,1-2.2,2.2A2.205,2.205,0,0,1-85.926-10.818Z" transform="translate(85.926 13.023)"/></g><g transform="translate(-106.505 74.734)"><path class="b" d="M-106.765,24.223a6.825,6.825,0,0,0-6.825,6.827,6.824,6.824,0,0,0,6.825,6.825,6.824,6.824,0,0,0,6.825-6.825A6.847,6.847,0,0,0-106.765,24.223Zm0,10.923a4.1,4.1,0,0,1-4.1-4.1,4.073,4.073,0,0,1,4.052-4.094.139.139,0,0,1,.044,0,4.094,4.094,0,0,1,4.094,4.094A4.1,4.1,0,0,1-106.765,35.146Z" transform="translate(113.59 -24.223)"/></g><g transform="translate(-116.726 20.696)"><path class="c" d="M-112.645,21.574l3.454,1.612,1.842,3.684a2.646,2.646,0,0,0,2.072,1.381A2.213,2.213,0,0,0-103.2,26.87l1.612-3.454,3.914-1.842A2.646,2.646,0,0,0-96.3,19.5a2.213,2.213,0,0,0-1.382-2.072l-3.454-1.842-1.842-3.684a2.646,2.646,0,0,0-2.072-1.381,2.213,2.213,0,0,0-2.072,1.381l-1.842,3.684-3.684,1.842a2.646,2.646,0,0,0-1.381,2.072A2.213,2.213,0,0,0-112.645,21.574Zm7.6-3.454a2.775,2.775,0,0,0,1.151,1.151l.23.23-.46.23a1.8,1.8,0,0,0-.921.921v-.23a2.775,2.775,0,0,0-1.151-1.151A2.775,2.775,0,0,0-105.046,18.12Z" transform="translate(120.243 9.97)"/><path class="c" d="M-102.544,15.307l5.3,2.533,2.533,5.526a2.646,2.646,0,0,0,2.072,1.381,2.213,2.213,0,0,0,2.072-1.381l2.533-5.3,5.756-2.763A2.646,2.646,0,0,0-80.9,13.234c0-.921-.23-1.381-.921-1.612l-5.756-2.993L-90.111,3.1a2.646,2.646,0,0,0-2.072-1.381A2.213,2.213,0,0,0-94.256,3.1l-2.763,5.526-5.526,2.533a2.646,2.646,0,0,0-1.382,2.072A2.213,2.213,0,0,0-102.544,15.307Zm8.059-2.993a2.775,2.775,0,0,0,1.151-1.151l1.151-2.072.921,2.072a2.114,2.114,0,0,0,.921,1.381l2.072,1.151-2.072.921a2.775,2.775,0,0,0-1.151,1.151l-.921,1.612-.921-2.072a2.775,2.775,0,0,0-1.151-1.151l-1.842-.921Z" transform="translate(133.398 -1.492)"/><path class="c" d="M32.014,83.36a19.98,19.98,0,0,0,3.454-10.822c0-9.67-8.749-17.269-20.492-18.42H-8.74c-12.664,0-22.795,8.059-22.795,18.42A19.409,19.409,0,0,0-28.08,83.36,21.859,21.859,0,0,1-26.008,88.2H-41.2A25.2,25.2,0,0,0-66.071,65.4,25.035,25.035,0,0,0-90.938,88.2h-3.369l-17.568-.115V72.555h-.085l-.161-6.463V60.105a8.277,8.277,0,0,1,.46-2.533s1.51-3.527,3.684-4.6a5.033,5.033,0,0,0,1.151-.691L-69.065,38a1.975,1.975,0,0,0,1.381-1.612A37.635,37.635,0,0,1-31.074,6.227H10.371L10.3,21.119c0,.06-.032.1-.032.161V37.911c0,2.989,4.642,2.993,4.642,0v-6.2l.064-27.789a2.175,2.175,0,0,0-2.3-2.3H-31.074A42.079,42.079,0,0,0-71.828,34.087L-108.437,47.9a13.073,13.073,0,0,0-6.907,6.217v.23a12.483,12.483,0,0,0-1.381,5.756V75.3h.016V88.018a4.811,4.811,0,0,0,4.6,4.89l12.887-.163,0,.055h8.059A25.2,25.2,0,0,0-66.3,115.595,25.035,25.035,0,0,0-41.435,92.8h15.657a15.77,15.77,0,0,1-2.533,7.828,19.409,19.409,0,0,0-3.454,10.822,16.355,16.355,0,0,0,4.144,10.822V124.8a1.384,1.384,0,0,0,.23.921c2.3,5.3,6.217,10.131,11.973,14.736a13.645,13.645,0,0,1,5.3,10.591,2.175,2.175,0,0,0,2.3,2.3h25.1a2.175,2.175,0,0,0,2.3-2.3V147.6a12.671,12.671,0,0,1,2.763-8.059,12,12,0,0,0,2.533-8.519v-3.914c6.447-3.454,10.591-9.21,10.591-15.427a19.98,19.98,0,0,0-3.454-10.822A16.072,16.072,0,0,1,32.014,83.36ZM-66.3,110.99A20.537,20.537,0,0,1-86.794,90.5,20.537,20.537,0,0,1-66.3,70.006,20.537,20.537,0,0,1-45.81,90.5,20.537,20.537,0,0,1-66.3,110.99ZM18.43,137.238a18.583,18.583,0,0,0-3.684,10.822v1.151H-5.977a19.067,19.067,0,0,0-6.677-11.973,32.8,32.8,0,0,1-10.361-12.664V110.069c0-1.151,1.381-1.381,2.3-1.381.921.23,2.993,3.684,3.223,4.835v8.059a2.175,2.175,0,0,0,2.3,2.3,2.175,2.175,0,0,0,2.3-2.3v-32a2.532,2.532,0,0,1,1.381-2.3,2.571,2.571,0,0,1,2.3,0,2.418,2.418,0,0,1,1.151,2.072V101.78a2.175,2.175,0,0,0,2.3,2.3,2.175,2.175,0,0,0,2.3-2.3V84.511a2.175,2.175,0,0,1,2.3-2.3A2.1,2.1,0,0,1,.47,82.9a3.429,3.429,0,0,1,.921,2.072v30.393a2.175,2.175,0,0,0,2.3,2.3,2.175,2.175,0,0,0,2.3-2.3V89.347a2.175,2.175,0,0,1,2.3-2.3,2.1,2.1,0,0,1,1.612.691,3.429,3.429,0,0,1,.921,2.072v16.117a2.175,2.175,0,0,0,2.3,2.3,2.175,2.175,0,0,0,2.3-2.3V97.175a2.307,2.307,0,0,1,2.3-2.3,2.476,2.476,0,0,1,2.3,2.3v34.537A7.406,7.406,0,0,1,18.43,137.238Zm6.217-15.427V97.175a7.082,7.082,0,0,0-6.907-6.907,6.812,6.812,0,0,0-2.3.46v-.921a8.5,8.5,0,0,0-2.3-5.526,6.1,6.1,0,0,0-5.065-1.842,8.181,8.181,0,0,0-2.3.46,8.67,8.67,0,0,0-2.072-3.454A6.1,6.1,0,0,0-1.372,77.6a6.9,6.9,0,0,0-6.447,5.3,7.171,7.171,0,0,0-5.756.23,7.088,7.088,0,0,0-3.684,6.447v15.657a5.421,5.421,0,0,0-2.993-1.151,7.366,7.366,0,0,0-5.3,1.842l1.381-2.763A19.443,19.443,0,0,0-20.943,90.5v-.23a21.024,21.024,0,0,0-3.223-9.44,15.441,15.441,0,0,1-2.763-8.289c0-7.828,8.059-13.815,18.19-13.815H12.674c9.67,0,17.959,6.217,17.959,13.815a15.44,15.44,0,0,1-2.763,8.289,20.154,20.154,0,0,0,0,22.564,15.44,15.44,0,0,1,2.763,8.289C30.633,115.595,28.33,119.279,24.646,121.812Z" transform="translate(116.726 -1.622)"/><path class="c" d="M-62.865,6.822A30.015,30.015,0,0,0-92.106,31v6.217c-.23.921.691,2.072,2.072,2.072h42.826a2.175,2.175,0,0,0,2.3-2.3V9.124a2.175,2.175,0,0,0-2.3-2.3Zm13.124,27.63H-87.731V31.459A25.529,25.529,0,0,1-63.095,11.2H-49.74Z" transform="translate(148.747 5.151)"/><path class="c" d="M-88.314,35.222A11.546,11.546,0,0,0-99.826,46.734,11.7,11.7,0,0,0-88.314,58.247,11.7,11.7,0,0,0-76.8,46.734,11.546,11.546,0,0,0-88.314,35.222Zm0,18.42a6.927,6.927,0,0,1-6.907-6.907,7.082,7.082,0,0,1,6.907-6.907,7.082,7.082,0,0,1,6.907,6.907A6.927,6.927,0,0,1-88.314,53.642Z" transform="translate(138.738 42.141)"/></g><g transform="translate(23.537 78.744)"><path class="d" d="M-55.752,36.355l42.566-.21-.03-4.794-42.566.212Z" transform="translate(55.842 -20.947)"/><path class="d" d="M-36.149,26.886l-19.659.1.03,4.791,19.652-.1Z" transform="translate(55.808 -26.764)"/><rect class="d" width="19.682" height="4.794" transform="matrix(1, -0.006, 0.006, 1, 22.886, 0.111)"/><path class="d" d="M-55.728,40.933l19.652-.1-.028-4.791-19.652.1Z" transform="translate(55.876 -14.837)"/><rect class="d" width="19.684" height="4.793" transform="matrix(1, -0.005, 0.005, 1, 23.003, 21.191)"/></g></g></svg>