<svg xmlns="http://www.w3.org/2000/svg" width="29.521" height="33.211" viewBox="0 0 29.521 33.211"><defs><style>.a{fill:#e54300;}</style></defs><g transform="translate(-1028.036 -1067.789)"><g transform="translate(1028.036 1067.789)"><path class="a" d="M16.761,51.211a.918.918,0,0,0,.554-.185l4.071-3.054A22.982,22.982,0,0,0,30.26,33.531l1.247-7.067a.922.922,0,0,0-.474-.974L17.2,18.109a.921.921,0,0,0-.868,0L2.489,25.489a.923.923,0,0,0-.474.974l1.237,7.018a23,23,0,0,0,8.76,14.358L16.2,51.024A.921.921,0,0,0,16.761,51.211ZM5.068,33.16,3.948,26.8l12.813-6.834L29.574,26.8,28.443,33.21A21.145,21.145,0,0,1,20.278,46.5l-3.514,2.636L13.128,46.37A21.158,21.158,0,0,1,5.068,33.16Z" transform="translate(-2.001 -18)"/><path class="a" d="M20.608,45.145a17.162,17.162,0,0,0,6.6-10.747l.915-5.181a.923.923,0,0,0-.474-.974l-3.8-2.027a.923.923,0,0,0-1.249.38h0a.924.924,0,0,0,.38,1.248l2.62,1.4a.923.923,0,0,1,.474.975l-.683,3.864a15.322,15.322,0,0,1-5.9,9.593l-1.867,1.4a.922.922,0,0,1-1.112,0l-1.964-1.493a15.323,15.323,0,0,1-5.817-9.533l-.676-3.828a.921.921,0,0,1,.474-.974l2.619-1.4a.924.924,0,0,0,.38-1.248h0a.923.923,0,0,0-1.249-.38l-3.8,2.026a.923.923,0,0,0-.474.974l.907,5.146a17.156,17.156,0,0,0,6.518,10.683l3.074,2.335a.922.922,0,0,0,1.112,0Z" transform="translate(-2.311 -18.628)"/><path class="a" d="M18.114,24.638l2.009,1.071a.923.923,0,0,0,1.249-.38h0a.924.924,0,0,0-.38-1.248l-2.878-1.534a.922.922,0,0,0-.868,0L14.37,24.08a.924.924,0,0,0-.38,1.248h0a.923.923,0,0,0,1.249.38l2.007-1.07A.92.92,0,0,1,18.114,24.638Z" transform="translate(-2.921 -18.344)"/><path class="a" d="M16.7,39.284h.035a.922.922,0,0,0,.694-.315l5.851-6.686a.922.922,0,0,0-.087-1.3h0a.922.922,0,0,0-1.3.087l-5.1,5.83-1.53-2.042a.923.923,0,0,0-1.292-.185h0a.923.923,0,0,0-.185,1.292L16,38.915A.926.926,0,0,0,16.7,39.284Z" transform="translate(-2.899 -18.988)"/><rect class="a" width="2" height="1" transform="translate(13.964 9.211)"/><rect class="a" width="2" height="1" transform="translate(13.964 23.211)"/></g></g></svg>