<svg xmlns="http://www.w3.org/2000/svg" width="196.82" height="171.805" viewBox="0 0 196.82 171.805"><defs><style>.a{fill:#db830f;}.b{fill:#e54300;stroke:#e54300;stroke-width:0.5px;}.c{fill:#ffdacb;}</style></defs><g transform="translate(0 0.26)"><g transform="translate(18.177 -6.976)"><g transform="translate(68.926 8.716)"><path class="a" d="M87.349,32.371a1.986,1.986,0,1,1,1.985,1.985A1.986,1.986,0,0,1,87.349,32.371Z" transform="translate(10.72 14.489)"/><path class="a" d="M79.141,32.371a1.985,1.985,0,1,1,1.985,1.985A1.984,1.984,0,0,1,79.141,32.371Z" transform="translate(2.584 14.489)"/><path class="a" d="M70.932,32.371a1.986,1.986,0,1,1,1.987,1.985A1.986,1.986,0,0,1,70.932,32.371Z" transform="translate(-5.553 14.489)"/><path class="a" d="M62.724,32.371a1.986,1.986,0,1,1,1.985,1.985A1.986,1.986,0,0,1,62.724,32.371Z" transform="translate(-13.69 14.489)"/><path class="a" d="M54.516,32.371A1.985,1.985,0,1,1,56.5,34.357,1.984,1.984,0,0,1,54.516,32.371Z" transform="translate(-21.826 14.489)"/><path class="a" d="M46.307,32.371a1.986,1.986,0,1,1,1.987,1.985A1.986,1.986,0,0,1,46.307,32.371Z" transform="translate(-29.963 14.489)"/><path class="a" d="M38.1,32.371a1.985,1.985,0,1,1,1.985,1.985A1.986,1.986,0,0,1,38.1,32.371Z" transform="translate(-38.099 14.489)"/><path class="a" d="M87.349,24.859a1.986,1.986,0,1,1,1.985,1.987A1.987,1.987,0,0,1,87.349,24.859Z" transform="translate(10.72 7.042)"/><path class="a" d="M79.141,24.859a1.985,1.985,0,1,1,1.985,1.987A1.986,1.986,0,0,1,79.141,24.859Z" transform="translate(2.584 7.042)"/><path class="a" d="M70.932,24.859a1.986,1.986,0,1,1,1.987,1.987A1.987,1.987,0,0,1,70.932,24.859Z" transform="translate(-5.553 7.042)"/><path class="a" d="M62.724,24.859a1.986,1.986,0,1,1,1.985,1.987A1.987,1.987,0,0,1,62.724,24.859Z" transform="translate(-13.69 7.042)"/><path class="a" d="M54.516,24.859A1.985,1.985,0,1,1,56.5,26.847,1.986,1.986,0,0,1,54.516,24.859Z" transform="translate(-21.826 7.042)"/><path class="a" d="M46.307,24.859a1.986,1.986,0,1,1,1.987,1.987A1.987,1.987,0,0,1,46.307,24.859Z" transform="translate(-29.963 7.042)"/><path class="a" d="M38.1,24.859a1.985,1.985,0,1,1,1.985,1.987A1.987,1.987,0,0,1,38.1,24.859Z" transform="translate(-38.099 7.042)"/><path class="a" d="M87.349,17.349a1.986,1.986,0,1,1,1.985,1.985A1.987,1.987,0,0,1,87.349,17.349Z" transform="translate(10.72 -0.404)"/><circle class="a" cx="1.986" cy="1.986" r="1.986" transform="translate(81.724 14.959)"/><circle class="a" cx="1.986" cy="1.986" r="1.986" transform="translate(65.379 14.959)"/><circle class="a" cx="1.986" cy="1.986" r="1.986" transform="translate(49.035 14.959)"/><path class="a" d="M54.516,17.349A1.985,1.985,0,1,1,56.5,19.335,1.986,1.986,0,0,1,54.516,17.349Z" transform="translate(-21.826 -0.404)"/><path class="a" d="M46.307,17.349a1.986,1.986,0,1,1,1.987,1.985A1.988,1.988,0,0,1,46.307,17.349Z" transform="translate(-29.963 -0.404)"/><path class="a" d="M38.1,17.349a1.985,1.985,0,1,1,1.985,1.985A1.987,1.987,0,0,1,38.1,17.349Z" transform="translate(-38.099 -0.404)"/><path class="a" d="M87.349,9.837a1.986,1.986,0,1,1,1.985,1.985A1.987,1.987,0,0,1,87.349,9.837Z" transform="translate(10.72 -7.85)"/><path class="a" d="M79.141,9.837a1.985,1.985,0,1,1,1.985,1.985A1.986,1.986,0,0,1,79.141,9.837Z" transform="translate(2.584 -7.85)"/><path class="a" d="M70.932,9.837a1.986,1.986,0,1,1,1.987,1.985A1.988,1.988,0,0,1,70.932,9.837Z" transform="translate(-5.553 -7.85)"/><path class="a" d="M62.724,9.837a1.986,1.986,0,1,1,1.985,1.985A1.987,1.987,0,0,1,62.724,9.837Z" transform="translate(-13.69 -7.85)"/><path class="a" d="M54.516,9.837A1.985,1.985,0,1,1,56.5,11.823,1.986,1.986,0,0,1,54.516,9.837Z" transform="translate(-21.826 -7.85)"/><path class="a" d="M46.307,9.837a1.986,1.986,0,1,1,1.987,1.985A1.988,1.988,0,0,1,46.307,9.837Z" transform="translate(-29.963 -7.85)"/><path class="a" d="M38.1,9.837a1.985,1.985,0,1,1,1.985,1.985A1.987,1.987,0,0,1,38.1,9.837Z" transform="translate(-38.099 -7.85)"/></g><g transform="translate(7 6.976)"><path class="b" d="M151.925,7.024a1.987,1.987,0,0,0-.932.5L119.133,37.39a1.988,1.988,0,0,0-.623,1.493V64.023L105.877,78.46a24.539,24.539,0,0,0-13.254-3.734H40.851c-13.895,0-23.895,10.285-23.895,23.895v14.934C11.17,116.915,7,121.473,7,126.5V160.35a1.992,1.992,0,0,0,1.991,1.991h5.974v11.947a4.018,4.018,0,0,0,3.982,3.982h15.93a4.018,4.018,0,0,0,3.982-3.982V162.341H94.615v11.947a4.018,4.018,0,0,0,3.982,3.982h15.93a4.018,4.018,0,0,0,3.982-3.982V162.341h5.974a1.991,1.991,0,0,0,.056-3.982H86.65V144.42a1.992,1.992,0,0,0-1.991-1.991H48.816a1.941,1.941,0,0,0-.372,0,1.989,1.989,0,0,0-1.619,1.991v13.939H10.982V126.5c0-2.9,3.21-7.212,8.9-10.205a1.992,1.992,0,0,0,1.057-1.742V98.621c0-11.732,7.909-19.912,19.912-19.912H92.624c12,0,19.912,8.18,19.912,19.912v15.93a1.992,1.992,0,0,0,1.057,1.742c5.689,2.993,8.9,7.306,8.9,10.205v21.9a1.991,1.991,0,1,0,3.982.056V126.5c0-5.026-4.17-9.584-9.956-12.943V98.621a23.721,23.721,0,0,0-7.467-17.734l12.322-14.126H144.4a2,2,0,0,0,1.432-.621l31.86-31.86a1.994,1.994,0,0,0,0-2.8L153.793,7.583A2,2,0,0,0,151.925,7.024Zm.374,4.729,21.1,21.157L143.526,62.779H122.492V39.756ZM44.834,88.665c-4.329,0-7.75.82-10.205,2.551a8.9,8.9,0,0,0-3.734,7.405v11.947a1.992,1.992,0,0,0,1.973,2.009,2.022,2.022,0,0,0,.577-.08c9.817-2.877,19.223-3.921,33.292-3.921s23.475,1.043,33.292,3.921a1.993,1.993,0,0,0,2.471-1.352,2.022,2.022,0,0,0,.08-.577V98.621a8.9,8.9,0,0,0-3.734-7.405c-2.455-1.73-5.876-2.551-10.205-2.551Zm0,3.982H88.641c3.815,0,6.42.759,7.9,1.8a4.553,4.553,0,0,1,2.053,4.17v9.52c-9.383-2.471-18.756-3.546-31.86-3.546s-22.477,1.075-31.86,3.546v-9.52a4.553,4.553,0,0,1,2.053-4.17C38.414,93.406,41.018,92.647,44.834,92.647ZM28.9,122.516a9.956,9.956,0,1,0,9.956,9.956A9.987,9.987,0,0,0,28.9,122.516Zm75.667,0a9.956,9.956,0,1,0,9.956,9.956A9.986,9.986,0,0,0,104.571,122.516ZM28.9,126.5a5.974,5.974,0,1,1-5.974,5.974A5.943,5.943,0,0,1,28.9,126.5Zm75.667,0a5.974,5.974,0,1,1-5.974,5.974A5.943,5.943,0,0,1,104.571,126.5ZM50.807,146.411h31.86v11.947H50.807Zm-31.86,15.93h15.93v11.947H18.947Zm79.65,0h15.93v11.947H98.6Z" transform="translate(-7 -6.976)"/></g></g><g transform="matrix(0.999, 0.035, -0.035, 0.999, 0.867, 121.001)"><path class="c" d="M-755.995,533.522l-38.339,1.534.179,4.316,38.338-1.534Z" transform="translate(794.72 -523.897)"/><path class="c" d="M-778.532,545.508l17.706-.707-.178-4.316-17.7.708Z" transform="translate(800.11 -521.495)"/><rect class="c" width="17.741" height="4.321" transform="translate(0.77 20.529) rotate(-2.33)"/><path class="c" d="M-761.578,526.365l-17.7.709.177,4.315,17.7-.708Z" transform="translate(799.913 -526.365)"/><rect class="c" width="17.742" height="4.32" transform="translate(0 1.534) rotate(-2.296)"/></g></g></svg>