<svg xmlns="http://www.w3.org/2000/svg" width="36.437" height="44" viewBox="0 0 36.437 44"><defs><style>.a,.b{fill:#e54300;}.b{stroke:#e54300;stroke-width:0.3px;}</style></defs><g transform="translate(1315.78 -1517.816)"><g transform="translate(-1315.78 1517.816)"><g transform="translate(7.906)"><path class="a" d="M-1282.468,1541.535h0a.687.687,0,0,1-.572-.306l-2.091-3.138a10.278,10.278,0,0,1-7.649-9.964,10.246,10.246,0,0,1,3.021-7.292,10.246,10.246,0,0,1,7.291-3.019h0a10.246,10.246,0,0,1,7.291,3.021,10.245,10.245,0,0,1,3.019,7.292h0a10.277,10.277,0,0,1-7.649,9.962l-2.091,3.138A.687.687,0,0,1-1282.468,1541.535Zm0-22.344a8.878,8.878,0,0,0-6.319,2.617,8.881,8.881,0,0,0-2.618,6.319,8.909,8.909,0,0,0,6.859,8.693.686.686,0,0,1,.412.287l1.665,2.5,1.666-2.5a.687.687,0,0,1,.413-.287,8.908,8.908,0,0,0,6.859-8.691,8.88,8.88,0,0,0-2.617-6.32,8.878,8.878,0,0,0-6.32-2.618Z" transform="translate(1292.78 -1517.816)"/></g><g transform="translate(4.125 28.188)"><path class="a" d="M-1300.686,1606.006a3.1,3.1,0,0,1-3.094-3.094,3.1,3.1,0,0,1,3.094-3.094,3.1,3.1,0,0,1,3.094,3.094A3.1,3.1,0,0,1-1300.686,1606.006Zm0-4.812a1.721,1.721,0,0,0-1.719,1.719,1.721,1.721,0,0,0,1.719,1.719,1.721,1.721,0,0,0,1.719-1.719A1.721,1.721,0,0,0-1300.686,1601.194Z" transform="translate(1303.78 -1599.819)"/></g><g transform="translate(17.353 24.169)"><rect class="a" width="2" height="9" transform="translate(-0.352 -0.169)"/></g><g transform="translate(26.124 28.188)"><path class="a" d="M-1236.686,1606.006a3.1,3.1,0,0,1-3.094-3.094,3.1,3.1,0,0,1,3.094-3.094,3.1,3.1,0,0,1,3.094,3.094A3.1,3.1,0,0,1-1236.686,1606.006Zm0-4.812a1.721,1.721,0,0,0-1.719,1.719,1.721,1.721,0,0,0,1.719,1.719,1.721,1.721,0,0,0,1.719-1.719A1.721,1.721,0,0,0-1236.686,1601.194Z" transform="translate(1239.78 -1599.819)"/></g><g transform="translate(5.888 22.543)"><path class="a" d="M-1276.691,1586.293h-19.254a2.643,2.643,0,0,1-2.688-1.84.687.687,0,0,1,.517-.824.687.687,0,0,1,.824.517c.172.751,1.339.772,1.351.772h19.246a1.377,1.377,0,0,0,1.345-1.017.687.687,0,0,1,.847-.477.688.688,0,0,1,.477.847A2.775,2.775,0,0,1-1276.691,1586.293Z" transform="translate(1298.651 -1583.398)"/></g><g transform="translate(1.719 15.664)"><path class="a" d="M-1309.405,1584.158h-1.375v-4.812a6.822,6.822,0,0,1,4.125-5.994v-1.568c0-.264.051-6.482,4.474-8.4l.547,1.261c-3.592,1.557-3.645,7.083-3.646,7.139v2.044a.688.688,0,0,1-.468.651,5.32,5.32,0,0,0-3.657,4.868Z" transform="translate(1310.78 -1563.384)"/></g><g transform="translate(25.572 15.661)"><path class="a" d="M-1232.241,1584.152h-1.375v-4.812a5.32,5.32,0,0,0-3.657-4.866.688.688,0,0,1-.468-.651v-2.045c0-.055-.054-5.581-3.646-7.142l.548-1.261c4.422,1.921,4.473,8.139,4.473,8.4v1.568a6.822,6.822,0,0,1,4.125,5.994Z" transform="translate(1241.387 -1563.375)"/></g><g transform="translate(6.187 23.719)"><path class="a" d="M-1287.468,1600.225a.684.684,0,0,1-.249-.047c-.185-.072-4.52-1.8-4.9-5.488l-.049-.486c-.3-3.029-.486-4.857-4.612-6.036a.687.687,0,0,1-.472-.85.688.688,0,0,1,.85-.472c5.023,1.435,5.292,4.116,5.6,7.221l.048.481c.3,2.847,4,4.335,4.036,4.35a.688.688,0,0,1,.389.891A.688.688,0,0,1-1287.468,1600.225Z" transform="translate(1297.78 -1586.818)"/></g><g transform="translate(19.25 23.719)"><path class="a" d="M-1259.092,1600.224a.687.687,0,0,1-.641-.438.687.687,0,0,1,.39-.89h0c.037-.015,3.74-1.5,4.036-4.35l.049-.481c.31-3.1.578-5.785,5.6-7.221a.686.686,0,0,1,.85.472.687.687,0,0,1-.472.85c-4.126,1.179-4.309,3.007-4.612,6.036l-.049.486c-.383,3.685-4.718,5.417-4.9,5.488A.686.686,0,0,1-1259.092,1600.224Z" transform="translate(1259.78 -1586.817)"/></g><g transform="translate(5.5 38.5)"><path class="a" d="M-1287.062,1632.913c-.294,0-7.213-.012-10.723-1.089-.762-.151-2-.733-2-2.005h1.375c0,.456.9.66.914.661a.687.687,0,0,1,.078.019c3.3,1.026,10.282,1.038,10.352,1.038s7.055-.012,10.352-1.038a.757.757,0,0,1,.081-.02c.006,0,.91-.2.91-.661h1.375c0,1.272-1.234,1.854-2,2.005C-1279.848,1632.9-1286.768,1632.913-1287.062,1632.913Z" transform="translate(1299.78 -1629.819)"/></g><g transform="translate(0 35.75)"><path class="a" d="M-1281.234,1625.6h-32.656a1.893,1.893,0,0,1-1.891-1.891,1.893,1.893,0,0,1,1.891-1.891h32.656a1.893,1.893,0,0,1,1.891,1.891A1.893,1.893,0,0,1-1281.234,1625.6Zm-32.656-2.406a.516.516,0,0,0-.516.516.516.516,0,0,0,.516.516h32.656a.516.516,0,0,0,.516-.516.516.516,0,0,0-.516-.516Z" transform="translate(1315.78 -1621.819)"/></g><g transform="translate(3.094 38.844)"><path class="a" d="M-1304.03,1635.975a2.753,2.753,0,0,1-2.75-2.75v-2.406h1.375v2.406a1.377,1.377,0,0,0,1.375,1.375,1.376,1.376,0,0,0,1.375-1.375v-1.375h1.375v1.375A2.753,2.753,0,0,1-1304.03,1635.975Z" transform="translate(1306.78 -1630.819)"/></g><g transform="translate(27.843 38.844)"><path class="a" d="M-1232.03,1635.975a2.753,2.753,0,0,1-2.75-2.75v-1.375h1.375v1.375a1.377,1.377,0,0,0,1.375,1.375,1.376,1.376,0,0,0,1.375-1.375v-2.406h1.375v2.406A2.753,2.753,0,0,1-1232.03,1635.975Z" transform="translate(1234.78 -1630.819)"/></g></g><g transform="translate(-1298.746 1522.516)"><path class="b" d="M-1265.047,1531.49a1.186,1.186,0,0,0-1.179,1.179v6.291a1.186,1.186,0,0,0,1.179,1.18,1.186,1.186,0,0,0,1.179-1.18v-6.291A1.186,1.186,0,0,0-1265.047,1531.49Zm0,.786a.384.384,0,0,1,.393.393v6.291a.384.384,0,0,1-.393.393.384.384,0,0,1-.393-.393v-6.291A.384.384,0,0,1-1265.047,1532.276Z" transform="translate(1266.226 -1531.49)"/><path class="b" d="M-1265.047,1560.084a1.185,1.185,0,0,0-1.179,1.179,1.186,1.186,0,0,0,1.179,1.179,1.186,1.186,0,0,0,1.179-1.179A1.186,1.186,0,0,0-1265.047,1560.084Zm0,.786a.388.388,0,0,1,.393.393.388.388,0,0,1-.393.393.388.388,0,0,1-.393-.393A.388.388,0,0,1-1265.047,1560.87Z" transform="translate(1266.226 -1550.255)"/></g></g></svg>