<svg xmlns="http://www.w3.org/2000/svg" width="165.955" height="181.38" viewBox="0 0 165.955 181.38"><defs><style>.a{fill:#db830f;}.b{fill:#e54300;}.c{fill:#ffdacb;}</style></defs><g transform="translate(0 0)"><g transform="translate(-18.541 -6.942)"><g transform="translate(69.368 6.942)"><path class="a" d="M71.447,60.2a2.419,2.419,0,1,1,0,3.421A2.416,2.416,0,0,1,71.447,60.2Z" transform="translate(-13.203 49.603)"/><path class="a" d="M64.661,53.414a2.421,2.421,0,1,1,0,3.423A2.422,2.422,0,0,1,64.661,53.414Z" transform="translate(-20.503 42.303)"/><path class="a" d="M51.092,39.845a2.421,2.421,0,1,1,0,3.423A2.422,2.422,0,0,1,51.092,39.845Z" transform="translate(-35.104 27.702)"/><path class="a" d="M44.308,33.062a2.419,2.419,0,1,1,0,3.421A2.416,2.416,0,0,1,44.308,33.062Z" transform="translate(-42.404 20.401)"/><path class="a" d="M84.439,60.774a2.42,2.42,0,1,1,0,3.423A2.42,2.42,0,0,1,84.439,60.774Z" transform="translate(0.779 50.222)"/><path class="a" d="M77.654,53.99a2.42,2.42,0,1,1,0,3.421A2.422,2.422,0,0,1,77.654,53.99Z" transform="translate(-6.522 42.922)"/><path class="a" d="M70.87,47.205a2.42,2.42,0,1,1,0,3.423A2.42,2.42,0,0,1,70.87,47.205Z" transform="translate(-13.822 35.621)"/><path class="a" d="M64.085,40.421a2.42,2.42,0,1,1,0,3.421A2.422,2.422,0,0,1,64.085,40.421Z" transform="translate(-21.123 28.321)"/><path class="a" d="M57.3,33.636a2.42,2.42,0,1,1,0,3.423A2.42,2.42,0,0,1,57.3,33.636Z" transform="translate(-28.423 21.02)"/><path class="a" d="M50.518,26.852a2.419,2.419,0,1,1,0,3.421A2.42,2.42,0,0,1,50.518,26.852Z" transform="translate(-35.724 13.721)"/><path class="a" d="M43.732,20.067a2.421,2.421,0,1,1,0,3.423A2.422,2.422,0,0,1,43.732,20.067Z" transform="translate(-43.024 6.42)"/><path class="a" d="M90.649,54.565a2.42,2.42,0,1,1,0,3.423A2.42,2.42,0,0,1,90.649,54.565Z" transform="translate(7.459 43.541)"/><circle class="a" cx="2.42" cy="2.42" r="2.42" transform="translate(83.314 83.314)"/><circle class="a" cx="2.42" cy="2.42" r="2.42" transform="translate(69.229 69.229)"/><circle class="a" cx="2.42" cy="2.42" r="2.42" transform="translate(55.144 55.144)"/><path class="a" d="M63.51,27.429a2.419,2.419,0,1,1,0,3.421A2.416,2.416,0,0,1,63.51,27.429Z" transform="translate(-21.742 14.34)"/><path class="a" d="M56.725,20.643a2.421,2.421,0,1,1,0,3.423A2.422,2.422,0,0,1,56.725,20.643Z" transform="translate(-29.043 7.039)"/><path class="a" d="M49.941,13.86a2.419,2.419,0,1,1,0,3.421A2.416,2.416,0,0,1,49.941,13.86Z" transform="translate(-36.343 -0.261)"/><path class="a" d="M96.856,48.358a2.42,2.42,0,1,1,0,3.421A2.42,2.42,0,0,1,96.856,48.358Z" transform="translate(14.14 36.861)"/><path class="a" d="M90.072,41.572a2.421,2.421,0,1,1,0,3.423A2.42,2.42,0,0,1,90.072,41.572Z" transform="translate(6.84 29.56)"/><path class="a" d="M83.287,34.788a2.42,2.42,0,1,1,0,3.421A2.422,2.422,0,0,1,83.287,34.788Z" transform="translate(-0.461 22.26)"/><path class="a" d="M76.5,28a2.421,2.421,0,1,1,0,3.423A2.42,2.42,0,0,1,76.5,28Z" transform="translate(-7.761 14.959)"/><path class="a" d="M69.72,21.219a2.419,2.419,0,1,1,0,3.421A2.42,2.42,0,0,1,69.72,21.219Z" transform="translate(-15.061 7.659)"/><path class="a" d="M62.934,14.434a2.421,2.421,0,1,1,0,3.423A2.422,2.422,0,0,1,62.934,14.434Z" transform="translate(-22.361 0.358)"/><path class="a" d="M56.151,7.65a2.419,2.419,0,1,1,0,3.421A2.42,2.42,0,0,1,56.151,7.65Z" transform="translate(-29.662 -6.942)"/></g><g transform="translate(18.541 35.957)"><path class="b" d="M147.318,81.464a14.315,14.315,0,0,0,3.407-14.42,14.913,14.913,0,0,0-11.62-10.16,8.783,8.783,0,0,1-7.339-9.581,14.473,14.473,0,0,0-5.879-13.467,15.665,15.665,0,0,0-15.631-1.727,9.545,9.545,0,0,1-11.983-3.7,15.539,15.539,0,0,0-26.588,0,9.571,9.571,0,0,1-11.985,3.7,15.676,15.676,0,0,0-15.628,1.727A14.473,14.473,0,0,0,38.192,47.3a8.785,8.785,0,0,1-7.341,9.581,14.91,14.91,0,0,0-11.618,10.16,14.31,14.31,0,0,0,3.4,14.42,8.4,8.4,0,0,1,0,11.777,14.31,14.31,0,0,0-3.4,14.42A14.9,14.9,0,0,0,30.852,117.82a8.786,8.786,0,0,1,7.341,9.581,14.469,14.469,0,0,0,5.879,13.467A15.681,15.681,0,0,0,59.7,142.6a9.561,9.561,0,0,1,11.985,3.7,15.539,15.539,0,0,0,26.588,0,9.543,9.543,0,0,1,11.983-3.7,15.66,15.66,0,0,0,15.628-1.727,14.471,14.471,0,0,0,5.881-13.467,8.784,8.784,0,0,1,7.339-9.581,14.907,14.907,0,0,0,11.62-10.158,14.314,14.314,0,0,0-3.407-14.42A8.4,8.4,0,0,1,147.318,81.464Zm-2.35,24.367a8.948,8.948,0,0,1-7.007,6.062,14.946,14.946,0,0,0-12.193,16.235,8.39,8.39,0,0,1-3.479,7.891,9.511,9.511,0,0,1-9.6,1.053,15.481,15.481,0,0,0-19.621,6.166,9.507,9.507,0,0,1-16.172,0,15.3,15.3,0,0,0-13.249-7.513,15.81,15.81,0,0,0-6.371,1.347,9.52,9.52,0,0,1-9.6-1.053,8.386,8.386,0,0,1-3.479-7.891A14.948,14.948,0,0,0,32,111.893a8.948,8.948,0,0,1-7.007-6.062A8.353,8.353,0,0,1,27,97.416a14.515,14.515,0,0,0,0-20.129,8.349,8.349,0,0,1-2.008-8.412A8.954,8.954,0,0,1,32,62.811,14.947,14.947,0,0,0,44.188,46.578a8.384,8.384,0,0,1,3.479-7.891,9.54,9.54,0,0,1,9.6-1.053,15.464,15.464,0,0,0,19.621-6.166,9.5,9.5,0,0,1,16.172,0,15.483,15.483,0,0,0,19.623,6.166,9.537,9.537,0,0,1,9.6,1.053,8.384,8.384,0,0,1,3.479,7.891,14.947,14.947,0,0,0,12.193,16.233,8.954,8.954,0,0,1,7.007,6.064,8.349,8.349,0,0,1-2.008,8.412,14.515,14.515,0,0,0,0,20.129A8.353,8.353,0,0,1,144.968,105.831Z" transform="translate(-18.541 -20.918)"/><path class="b" d="M85.126,40.569C81.6,39.3,74.671,38.655,66.194,47.387c-8.472-8.732-15.4-8.095-18.931-6.818C40.524,43.011,36,51.207,36,60.966,36,76.012,47.14,89.813,65.075,96.988a3.026,3.026,0,0,0,2.24,0C85.25,89.813,96.39,76.012,96.39,60.966,96.39,51.207,91.864,43.011,85.126,40.569ZM66.194,90.916C54.311,85.844,42.037,75.478,42.037,60.966c0-7.113,2.994-13.166,7.281-14.717a6.652,6.652,0,0,1,2.286-.394c3.646,0,7.912,2.753,12.269,7.987a3.129,3.129,0,0,0,4.42.224c.077-.071.152-.145.222-.224,5.306-6.373,10.465-9.066,14.555-7.592,4.289,1.551,7.281,7.6,7.281,14.717C90.351,75.478,78.079,85.844,66.194,90.916Z" transform="translate(0.243 -0.572)"/></g></g><g transform="translate(55.464 181.379) rotate(-90)"><path class="c" d="M-755.995,533.522l-38.339,1.534.179,4.316,38.338-1.534Z" transform="translate(794.72 -523.897)"/><path class="c" d="M-778.532,545.508l17.706-.707-.178-4.316-17.7.708Z" transform="translate(800.11 -521.495)"/><rect class="c" width="17.741" height="4.321" transform="translate(0.77 20.529) rotate(-2.33)"/><path class="c" d="M-761.578,526.365l-17.7.709.177,4.315,17.7-.708Z" transform="translate(799.913 -526.365)"/><rect class="c" width="17.742" height="4.32" transform="translate(0 1.534) rotate(-2.296)"/></g></g></svg>