<svg xmlns="http://www.w3.org/2000/svg" width="144.907" height="165.439" viewBox="0 0 144.907 165.439"><defs><style>.a{fill:#db830f;}.b{fill:#e54300;stroke:#e54300;stroke-width:1.6px;}.c{fill:#ffdacb;}</style></defs><g transform="translate(913.724 -1008.034)"><path class="a" d="M-821.8,1081.958a2.245,2.245,0,0,1,2.245,2.245,2.245,2.245,0,0,1-2.245,2.245,2.245,2.245,0,0,1-2.245-2.245A2.245,2.245,0,0,1-821.8,1081.958Z"/><path class="a" d="M-821.8,1026.515a2.245,2.245,0,0,1,2.245,2.245,2.246,2.246,0,0,1-2.245,2.246,2.246,2.246,0,0,1-2.245-2.246A2.245,2.245,0,0,1-821.8,1026.515Z"/><path class="a" d="M-821.8,1008.034a2.246,2.246,0,0,1,2.245,2.246,2.245,2.245,0,0,1-2.245,2.245,2.245,2.245,0,0,1-2.245-2.245A2.246,2.246,0,0,1-821.8,1008.034Z"/><path class="a" d="M-804.887,1100.438a2.246,2.246,0,0,1,2.245,2.246,2.245,2.245,0,0,1-2.245,2.245,2.245,2.245,0,0,1-2.245-2.245A2.246,2.246,0,0,1-804.887,1100.438Z"/><path class="a" d="M-804.887,1081.958a2.245,2.245,0,0,1,2.245,2.245,2.245,2.245,0,0,1-2.245,2.245,2.245,2.245,0,0,1-2.245-2.245A2.245,2.245,0,0,1-804.887,1081.958Z"/><path class="a" d="M-804.887,1045a2.245,2.245,0,0,1,2.245,2.245,2.245,2.245,0,0,1-2.245,2.245,2.245,2.245,0,0,1-2.245-2.245A2.245,2.245,0,0,1-804.887,1045Z"/><path class="a" d="M-804.887,1026.515a2.245,2.245,0,0,1,2.245,2.245,2.246,2.246,0,0,1-2.245,2.246,2.246,2.246,0,0,1-2.245-2.246A2.245,2.245,0,0,1-804.887,1026.515Z"/><path class="a" d="M-804.887,1008.034a2.246,2.246,0,0,1,2.245,2.246,2.245,2.245,0,0,1-2.245,2.245,2.245,2.245,0,0,1-2.245-2.245A2.246,2.246,0,0,1-804.887,1008.034Z"/><path class="a" d="M-787.974,1118.919a2.246,2.246,0,0,1,2.245,2.246,2.245,2.245,0,0,1-2.245,2.245,2.246,2.246,0,0,1-2.246-2.245A2.247,2.247,0,0,1-787.974,1118.919Z"/><circle class="a" cx="2.245" cy="2.245" r="2.245" transform="translate(-790.22 1100.438)"/><circle class="a" cx="2.245" cy="2.245" r="2.245" transform="translate(-790.22 1081.958)"/><circle class="a" cx="2.245" cy="2.245" r="2.245" transform="translate(-790.22 1063.477)"/><path class="a" d="M-787.974,1045a2.245,2.245,0,0,1,2.245,2.245,2.245,2.245,0,0,1-2.245,2.245,2.246,2.246,0,0,1-2.246-2.245A2.246,2.246,0,0,1-787.974,1045Z"/><path class="a" d="M-787.974,1026.515a2.245,2.245,0,0,1,2.245,2.245,2.246,2.246,0,0,1-2.245,2.246,2.247,2.247,0,0,1-2.246-2.246A2.246,2.246,0,0,1-787.974,1026.515Z"/><path class="a" d="M-787.974,1008.034a2.246,2.246,0,0,1,2.245,2.246,2.245,2.245,0,0,1-2.245,2.245,2.246,2.246,0,0,1-2.246-2.245A2.247,2.247,0,0,1-787.974,1008.034Z"/><path class="a" d="M-771.062,1118.919a2.246,2.246,0,0,1,2.245,2.246,2.245,2.245,0,0,1-2.245,2.245,2.245,2.245,0,0,1-2.245-2.245A2.246,2.246,0,0,1-771.062,1118.919Z"/><path class="a" d="M-771.062,1100.438a2.246,2.246,0,0,1,2.245,2.246,2.245,2.245,0,0,1-2.245,2.245,2.245,2.245,0,0,1-2.245-2.245A2.246,2.246,0,0,1-771.062,1100.438Z"/><path class="a" d="M-771.062,1081.958a2.245,2.245,0,0,1,2.245,2.245,2.245,2.245,0,0,1-2.245,2.245,2.245,2.245,0,0,1-2.245-2.245A2.245,2.245,0,0,1-771.062,1081.958Z"/><path class="a" d="M-771.062,1063.477a2.245,2.245,0,0,1,2.245,2.245,2.245,2.245,0,0,1-2.245,2.245,2.245,2.245,0,0,1-2.245-2.245A2.245,2.245,0,0,1-771.062,1063.477Z"/><path class="a" d="M-771.062,1045a2.245,2.245,0,0,1,2.245,2.245,2.245,2.245,0,0,1-2.245,2.245,2.245,2.245,0,0,1-2.245-2.245A2.245,2.245,0,0,1-771.062,1045Z"/><path class="a" d="M-771.062,1026.515a2.245,2.245,0,0,1,2.245,2.245,2.246,2.246,0,0,1-2.245,2.246,2.246,2.246,0,0,1-2.245-2.246A2.245,2.245,0,0,1-771.062,1026.515Z"/><path class="a" d="M-771.062,1008.034a2.246,2.246,0,0,1,2.245,2.246,2.245,2.245,0,0,1-2.245,2.245,2.245,2.245,0,0,1-2.245-2.245A2.246,2.246,0,0,1-771.062,1008.034Z"/><path class="b" d="M-798.3,1073.992a13.792,13.792,0,0,0,4.065-9.817,13.9,13.9,0,0,0-13.881-13.88h-.534l-.163-.51a47.1,47.1,0,0,0-44.8-32.661,46.832,46.832,0,0,0-14.319,2.248,47.1,47.1,0,0,0-30.414,30.413l-.163.51h-.535a13.788,13.788,0,0,0-9.815,4.067,13.794,13.794,0,0,0-4.065,9.817,13.9,13.9,0,0,0,13.88,13.88h3.739l.052.677a37.128,37.128,0,0,0,3.162,12.393l.252.56-.508.346a28.734,28.734,0,0,0-12.577,23.767v24.813a7.56,7.56,0,0,0,7.508,7.578H-809.8a7.557,7.557,0,0,0,7.548-7.549V1115.8a28.686,28.686,0,0,0-24.108-28.413l-1.259-.208.813-.982a34.8,34.8,0,0,0,4.851-7.751l.2-.43,13.646.041A13.785,13.785,0,0,0-798.3,1073.992Zm-96.58-24.663a44.333,44.333,0,0,1,41.292-29.053h.007a44.3,44.3,0,0,1,41.262,29.053l.357.983h-9.8l-.194-.431a34.747,34.747,0,0,0-45.915-17.357,34.688,34.688,0,0,0-17.357,17.357l-.2.431h-9.815Zm-4.192,25.582a10.76,10.76,0,0,1-10.748-10.747,10.76,10.76,0,0,1,10.748-10.747h2.449l-.479,1.039a22.278,22.278,0,0,0,.312,19.394l.531,1.061Zm6.34-.3a19.159,19.159,0,0,1-.47-20.751l.147-.413.52-.009h5.92l-.278.941a34.438,34.438,0,0,0,0,19.613l.278.941h-5.9Zm.645,4.217-.07-.8,6.733.036.2.427a34.8,34.8,0,0,0,4.852,7.751l.814.986-1.262.2a28.427,28.427,0,0,0-7.6,2.364l-.685.324-.3-.7A34.054,34.054,0,0,1-892.091,1078.827Zm86.712,36.974v24.829a4.425,4.425,0,0,1-4.394,4.4h-87.643a4.4,4.4,0,0,1-4.386-4.34V1115.8a25.632,25.632,0,0,1,10.767-20.84l.643-.458.409.676a36.7,36.7,0,0,0,27.066,17.532l.53.065.1.526a9.627,9.627,0,0,0,11.241,7.657,9.553,9.553,0,0,0,6.156-4.034,9.551,9.551,0,0,0,1.5-7.207,9.626,9.626,0,0,0-11.241-7.657,9.67,9.67,0,0,0-7.5,6.965l-.167.624-.64-.087a33.657,33.657,0,0,1-24.312-15.952l-.424-.7.741-.346a25.314,25.314,0,0,1,10.106-2.369l.285-.007.214.187a34.767,34.767,0,0,0,45.5,0l.216-.188.286.008A25.522,25.522,0,0,1-805.379,1115.8Zm-53.882-4.314a6.476,6.476,0,0,1,6.469-6.463,6.477,6.477,0,0,1,6.47,6.469,6.478,6.478,0,0,1-6.47,6.47h0a6.474,6.474,0,0,1-6.467-6.463l.377-.007Zm6.042-16.065h-.007a31.646,31.646,0,0,1-31.611-31.6v-.014a31.65,31.65,0,0,1,31.6-31.6h.007a31.647,31.647,0,0,1,31.611,31.6A31.646,31.646,0,0,1-853.219,1095.422Zm38.758-20.832-.218.321h-5.877l.279-.941a34.469,34.469,0,0,0,0-19.612l-.279-.941h6.329l.215.347A19.155,19.155,0,0,1-814.461,1074.59Zm3.538.351.53-1.06a22.29,22.29,0,0,0,.3-19.4l-.48-1.04h2.449a10.759,10.759,0,0,1,10.748,10.747,10.76,10.76,0,0,1-10.748,10.748Z"/><path class="c" d="M-855.134,1134.748l1.534,38.339,4.316-.179-1.534-38.338Z"/><path class="c" d="M-840.746,1151.9l-.707-17.706-4.316.178.708,17.7Z"/><rect class="c" width="4.321" height="17.741" transform="translate(-844.951 1154.977) rotate(-2.33)"/><path class="c" d="M-864.759,1135.138l.709,17.7,4.315-.177-.708-17.7Z"/><rect class="c" width="4.32" height="17.742" transform="translate(-863.936 1155.746) rotate(-2.296)"/></g></svg>