<svg xmlns="http://www.w3.org/2000/svg" xmlns:xlink="http://www.w3.org/1999/xlink" width="26.451" height="19.724" viewBox="0 0 26.451 19.724"><defs><style>.a{fill:url(#a);}.b{fill:#fff;}</style><radialGradient id="a" cx="0.175" cy="0.175" r="0.935" gradientTransform="matrix(0.998, 0, 0, -1, -0.001, 3.568)" gradientUnits="objectBoundingBox"><stop offset="0" stop-color="#9dd5f6"/><stop offset="0.071" stop-color="#98d3f5"/><stop offset="0.157" stop-color="#89cef3"/><stop offset="0.252" stop-color="#70c6ef"/><stop offset="0.351" stop-color="#4ebbea"/><stop offset="0.455" stop-color="#23ade3"/><stop offset="0.5" stop-color="#0da6e0"/><stop offset="1" stop-color="#2e77bc"/></radialGradient></defs><g transform="translate(-156.69 -283.549)"><path class="a" d="M182.986,280.016H156.691V299.74h26.295v-6.509a.613.613,0,0,0,.156-.434.559.559,0,0,0-.156-.433" transform="translate(-0.001 3.533)"/><path class="b" d="M159.06,379.409l-.506-1.233-.5,1.233m12.153-.491a.685.685,0,0,1-.366.064h-.9v-.687h.91a.758.758,0,0,1,.35.056.283.283,0,0,1,.155.273A.316.316,0,0,1,170.2,378.918Zm6.4.491-.511-1.233-.509,1.233Zm-11.939,1.334h-.758l0-2.422-1.072,2.422h-.649l-1.074-2.424v2.424h-1.5l-.284-.69h-1.539l-.287.69h-.8l1.324-3.092h1.1l1.257,2.927v-2.927h1.206l.967,2.1.889-2.1h1.231v3.092Zm3.02,0h-2.469v-3.092h2.469v.644h-1.73v.557h1.688v.634H165.96v.617h1.73Zm3.481-2.259a.87.87,0,0,1-.521.824.857.857,0,0,1,.366.26.89.89,0,0,1,.122.567v.607h-.745l0-.39a.928.928,0,0,0-.117-.6.723.723,0,0,0-.539-.132h-.793v1.125H168.2v-3.092h1.7a1.74,1.74,0,0,1,.895.148A.721.721,0,0,1,171.17,378.484Zm1.183,2.259H171.6v-3.092h.754Zm8.749,0h-1.047l-1.4-2.321v2.321h-1.505l-.288-.69h-1.535l-.279.69h-.865a1.31,1.31,0,0,1-1.467-1.522,1.646,1.646,0,0,1,.4-1.209,1.5,1.5,0,0,1,1.122-.361h.716v.663h-.7a.712.712,0,0,0-.569.183,1.021,1.021,0,0,0-.213.7,1.072,1.072,0,0,0,.2.726.713.713,0,0,0,.515.159h.332l1.042-2.432h1.107l1.251,2.925v-2.925h1.125l1.3,2.153v-2.153h.757v3.092Zm-24.412.607h1.263l.285-.687h.637l.284.687h2.485v-.525l.222.527h1.29l.222-.535v.533h6.175l0-1.127h.12c.084,0,.108.011.108.149v.979h3.194v-.262a2.53,2.53,0,0,0,1.185.262H175.5l.288-.687h.637l.281.687h2.589V380.7l.392.652h2.075v-4.312h-2.053v.509l-.288-.509h-2.107v.509l-.264-.509H174.2a2.556,2.556,0,0,0-1.233.252v-.252h-1.964v.252a1.217,1.217,0,0,0-.835-.252H163l-.481,1.114-.494-1.114h-2.26v.509l-.248-.509h-1.927l-.9,2.05v2.262Z" transform="translate(0 -89.28)"/><path class="b" d="M233.825,435.352h-1.347a.512.512,0,0,0-.3.056.241.241,0,0,0-.108.223.233.233,0,0,0,.162.23.842.842,0,0,0,.285.035l.4.011a1.167,1.167,0,0,1,.839.249.4.4,0,0,1,.069.076m0,1.159a1.152,1.152,0,0,1-1,.4h-1.427v-.663h1.422a.42.42,0,0,0,.3-.077.272.272,0,0,0,.087-.2.254.254,0,0,0-.09-.2.375.375,0,0,0-.26-.069c-.694-.023-1.56.022-1.56-.957,0-.449.285-.921,1.06-.921h1.472v-.615h-1.368a1.542,1.542,0,0,0-.925.253v-.253h-2.023a1.4,1.4,0,0,0-.883.253v-.253h-3.613v.253a1.923,1.923,0,0,0-1-.253h-2.383v.253a1.686,1.686,0,0,0-1.042-.253h-2.667l-.61.66-.572-.66h-3.984v4.315h3.909l.629-.671.592.671,2.409,0v-1.015h.237a2.513,2.513,0,0,0,1.029-.152v1.165h1.987V437.27h.1c.122,0,.134.005.134.127v1h6.037a1.721,1.721,0,0,0,1.006-.276v.276h1.915a2.566,2.566,0,0,0,1.084-.2v-.8Zm-2.948-1.236a.86.86,0,0,1,.221.655c0,.665-.416.976-1.161.976H228.5v-.663h1.434a.433.433,0,0,0,.3-.077.274.274,0,0,0,.087-.2.265.265,0,0,0-.09-.2.389.389,0,0,0-.263-.069c-.691-.023-1.557.022-1.557-.957,0-.449.282-.921,1.057-.921h1.482v.658h-1.356a.5.5,0,0,0-.3.056.259.259,0,0,0,.051.453.849.849,0,0,0,.288.035l.4.011A1.192,1.192,0,0,1,230.876,436.156Zm-6.669-.191a.708.708,0,0,1-.365.064h-.9v-.695h.91a.728.728,0,0,1,.353.056.294.294,0,0,1,.153.278A.334.334,0,0,1,224.208,435.965Zm.446.385a.8.8,0,0,1,.362.26.9.9,0,0,1,.122.565v.613H224.4V437.4c0-.186.018-.461-.119-.605a.717.717,0,0,0-.542-.137h-.79v1.13H222.2v-3.093h1.706a1.83,1.83,0,0,1,.889.146.724.724,0,0,1,.38.687A.866.866,0,0,1,224.654,436.35Zm.934-1.655h2.467v.64h-1.731v.562h1.688v.631h-1.688v.615l1.731,0v.642h-2.467Zm-4.986,1.427h-.955v-.787h.964c.267,0,.452.109.452.379S220.885,436.121,220.6,436.121Zm-1.691,1.384-1.135-1.26,1.135-1.22Zm-2.93-.363h-1.817v-.615h1.622V435.9h-1.622v-.562h1.853l.808.9Zm5.876-1.429c0,.859-.641,1.036-1.287,1.036h-.922v1.037H218.21l-.91-1.024-.946,1.024h-2.928v-3.093H216.4l.909,1.014.94-1.014h2.362C221.2,434.694,221.855,434.857,221.855,435.713Z" transform="translate(-50.84 -141.001)"/></g></svg>