<svg xmlns="http://www.w3.org/2000/svg" width="27.93" height="21.724" viewBox="0 0 27.93 21.724"><defs><style>.a{fill:#231f20;}.b{fill:#ff5f00;}.c{fill:#eb001b;}.d{fill:#f79e1b;}</style></defs><g transform="translate(-1312.999 -2831)"><g transform="translate(1312.999 2831)"><path class="a" d="M24.825,95.073V93.634a.854.854,0,0,0-.792-.911.872.872,0,0,0-.109,0,.887.887,0,0,0-.806.408.842.842,0,0,0-.758-.408.758.758,0,0,0-.671.34v-.283h-.5v2.292h.5V93.812a.537.537,0,0,1,.561-.609c.331,0,.5.216.5.6v1.275h.5V93.812a.539.539,0,0,1,.561-.609c.34,0,.5.216.5.6v1.275Zm7.449-2.292h-.82v-.7h-.5v.7h-.456v.456h.465v1.055c0,.532.206.849.8.849a1.17,1.17,0,0,0,.623-.177l-.144-.427a.919.919,0,0,1-.441.129c-.24,0-.331-.153-.331-.384V93.236h.815Zm4.253-.058a.676.676,0,0,0-.6.336v-.278h-.494v2.292h.5V93.788c0-.379.163-.59.479-.59a.81.81,0,0,1,.312.058l.153-.48a1.065,1.065,0,0,0-.355-.062Zm-6.43.24a1.714,1.714,0,0,0-.935-.24c-.58,0-.959.278-.959.734,0,.374.278.6.791.676l.24.034c.273.038.4.11.4.24,0,.177-.182.278-.523.278a1.22,1.22,0,0,1-.762-.24l-.24.388a1.654,1.654,0,0,0,.993.3c.662,0,1.045-.312,1.045-.748s-.3-.614-.8-.686l-.24-.034c-.216-.029-.388-.072-.388-.225s.163-.269.436-.269a1.477,1.477,0,0,1,.719.2Zm13.356-.24a.676.676,0,0,0-.6.336v-.278h-.494v2.292h.5V93.788c0-.379.163-.59.479-.59a.81.81,0,0,1,.312.058l.153-.48a1.065,1.065,0,0,0-.355-.062Zm-6.425,1.2a1.158,1.158,0,0,0,1.115,1.2c.036,0,.072,0,.108,0a1.2,1.2,0,0,0,.825-.273l-.24-.4a1.007,1.007,0,0,1-.6.206.736.736,0,0,1,0-1.467,1.007,1.007,0,0,1,.6.206l.24-.4a1.2,1.2,0,0,0-.825-.273A1.158,1.158,0,0,0,37.029,93.8c0,.036,0,.072,0,.108Zm4.67,0V92.781h-.5v.278a.87.87,0,0,0-.719-.336,1.2,1.2,0,0,0,0,2.4.871.871,0,0,0,.719-.336v.278h.5Zm-1.856,0a.688.688,0,1,1,0,.054C39.841,93.958,39.841,93.94,39.842,93.922Zm-6.018-1.2a1.2,1.2,0,0,0,.034,2.4h0a1.392,1.392,0,0,0,.952-.312l-.24-.369a1.092,1.092,0,0,1-.667.24.635.635,0,0,1-.686-.561h1.7v-.192a1.09,1.09,0,0,0-1.088-1.2Zm0,.446a.568.568,0,0,1,.58.556h-1.2a.59.59,0,0,1,.609-.556Zm12.493.758V91.86h-.479v1.2a.87.87,0,0,0-.719-.336,1.2,1.2,0,0,0,0,2.4.871.871,0,0,0,.719-.336v.278h.479Zm.832.813a.237.237,0,0,1,.091.017.229.229,0,0,1,.125.12.224.224,0,0,1,0,.177.229.229,0,0,1-.125.12.225.225,0,0,1-.091.019.24.24,0,0,1-.216-.139.226.226,0,0,1,0-.177.233.233,0,0,1,.223-.137Zm0,.405a.169.169,0,0,0,.07-.014.18.18,0,0,0,.055-.038.178.178,0,0,0,0-.24.179.179,0,0,0-.055-.038.173.173,0,0,0-.07-.014.182.182,0,0,0-.07.014.175.175,0,0,0-.058.038.178.178,0,0,0,0,.24.184.184,0,0,0,.134.053Zm.014-.285a.1.1,0,0,1,.062.019.06.06,0,0,1,.022.05.058.058,0,0,1-.017.043.084.084,0,0,1-.05.022l.07.079H47.2l-.065-.079h-.022v.079h-.046v-.211Zm-.053.041v.058h.053a.049.049,0,0,0,.029,0,.024.024,0,0,0,0-.022.024.024,0,0,0,0-.022.049.049,0,0,0-.029,0Zm-2.637-.973a.688.688,0,1,1,0,.054C44.473,93.963,44.473,93.945,44.474,93.927Zm-16.838,0V92.781h-.5v.278a.87.87,0,0,0-.719-.336,1.2,1.2,0,0,0,0,2.4.871.871,0,0,0,.719-.336v.278h.5Zm-1.856,0a.64.64,0,1,1-.006.059c0-.02,0-.04,0-.059Z" transform="translate(-19.743 -73.469)"/><g transform="translate(0 0)"><rect class="b" width="7.552" height="13.572" transform="translate(10.188 1.846)"/><path class="c" d="M25.822,23.786A8.617,8.617,0,0,1,29.118,17a8.631,8.631,0,1,0,0,13.572A8.617,8.617,0,0,1,25.822,23.786Z" transform="translate(-15.154 -15.153)"/><path class="d" d="M87.365,23.783A8.631,8.631,0,0,1,73.4,30.568,8.631,8.631,0,0,0,73.4,17a8.631,8.631,0,0,1,13.965,6.785Z" transform="translate(-59.436 -15.15)"/><path class="d" d="M127.663,72.4v-.278h.113V72.06h-.285v.058h.122V72.4Zm.554,0V72.06h-.086l-.1.24-.1-.24h-.077V72.4h.062v-.252l.093.218h.065l.093-.218V72.4Z" transform="translate(-100.557 -58.416)"/></g></g></g></svg>