<svg xmlns="http://www.w3.org/2000/svg" width="52" height="17.459" viewBox="0 0 52 17.459"><defs><style>.a{fill:#009cde;}.b{fill:#012169;}.c{fill:#003087;}</style></defs><g transform="translate(-175.684 -215.223)"><g transform="translate(175.684 215.223)"><path class="a" d="M189.017,219.659a3.468,3.468,0,0,0-.736-3.119c-.809-.921-2.27-1.316-4.139-1.316h-5.426a.776.776,0,0,0-.767.655l-2.259,14.328a.466.466,0,0,0,.46.538h3.35l-.231,1.466a.407.407,0,0,0,.4.471h2.824a.679.679,0,0,0,.671-.573l.028-.143.532-3.373.034-.186a.679.679,0,0,1,.671-.573h.422c2.735,0,4.877-1.111,5.5-4.325a3.682,3.682,0,0,0-.565-3.252,2.693,2.693,0,0,0-.773-.6h0" transform="translate(-175.684 -215.223)"/><path class="b" d="M189.017,219.659a3.468,3.468,0,0,0-.736-3.119c-.809-.921-2.27-1.316-4.139-1.316h-5.426a.776.776,0,0,0-.767.655l-2.259,14.328a.466.466,0,0,0,.46.538h3.35l.841-5.336-.026.167a.773.773,0,0,1,.764-.655h1.592c3.127,0,5.575-1.27,6.291-4.944.021-.109.039-.214.056-.318" transform="translate(-175.684 -215.223)"/><path class="c" d="M181.245,219.677a.679.679,0,0,1,.671-.573h4.253a8.877,8.877,0,0,1,1.4.1q.184.03.358.068t.338.086q.082.024.161.05a3.837,3.837,0,0,1,.588.248,3.468,3.468,0,0,0-.736-3.119c-.809-.921-2.27-1.316-4.139-1.316h-5.426a.776.776,0,0,0-.767.655l-2.259,14.328a.466.466,0,0,0,.46.538h3.35l.841-5.336Z" transform="translate(-175.684 -215.223)"/></g><g transform="translate(193.029 223.751)"><path class="c" d="M485.533,291.466a.283.283,0,0,1,.279-.239h2.617a3.249,3.249,0,0,1,3.332,3.878,4.75,4.75,0,0,1-4.556,3.878H484.54a.165.165,0,0,1-.163-.191Zm1.1,5.809h.453a2.466,2.466,0,0,0,2.581-2.17,1.719,1.719,0,0,0-1.872-2.17h-.332a.165.165,0,0,0-.163.139Z" transform="translate(-466.248 -291.021)"/><path class="c" d="M442.573,293.173l-.168,1.057h2.08a.165.165,0,0,1,.163.191l-.2,1.278a.283.283,0,0,1-.28.239h-1.79a.283.283,0,0,0-.279.238l-.178,1.1h2.2a.165.165,0,0,1,.163.191l-.2,1.278a.283.283,0,0,1-.279.239h-3.977a.165.165,0,0,1-.163-.191l1.156-7.326a.283.283,0,0,1,.279-.239h3.978a.165.165,0,0,1,.163.191l-.2,1.278a.283.283,0,0,1-.28.239h-1.913A.283.283,0,0,0,442.573,293.173Z" transform="translate(-426.676 -291.021)"/><path class="c" d="M550.53,298.982h-1.581a.165.165,0,0,1-.163-.191l1.156-7.326a.283.283,0,0,1,.279-.239H551.8a.165.165,0,0,1,.163.191l-1.156,7.326A.283.283,0,0,1,550.53,298.982Z" transform="translate(-523.255 -291.021)"/><path class="c" d="M387.7,298.982h-2.072a.229.229,0,0,1-.206-.13L384.053,296h-.021l-.442,2.789a.229.229,0,0,1-.226.193h-1.627a.165.165,0,0,1-.163-.191l1.163-7.371a.229.229,0,0,1,.226-.193h2.818c1.532,0,2.581.73,2.324,2.386a2.555,2.555,0,0,1-2.047,2.191l1.781,2.927A.165.165,0,0,1,387.7,298.982Zm-3.46-4.279h.2c.658,0,1.415-.124,1.553-.967s-.3-.964-1-.967H384.7a.175.175,0,0,0-.173.148Z" transform="translate(-375.257 -291.021)"/><path class="c" d="M582.27,298.982H580.69a.165.165,0,0,1-.163-.191l.926-5.857H579.98a.165.165,0,0,1-.163-.191l.2-1.278a.283.283,0,0,1,.279-.239h4.913a.165.165,0,0,1,.163.191l-.2,1.278a.283.283,0,0,1-.279.239h-1.424l-.919,5.809A.283.283,0,0,1,582.27,298.982Z" transform="translate(-550.719 -291.021)"/><path class="c" d="M333.043,291.847a.176.176,0,0,1-.3.091,1.936,1.936,0,0,0-1.4-.541,2.479,2.479,0,0,0-2.4,2.147,1.689,1.689,0,0,0,1.767,2.107,2.67,2.67,0,0,0,1.521-.525.175.175,0,0,1,.274.171l-.287,1.775a.278.278,0,0,1-.2.222,5.622,5.622,0,0,1-1.661.31,3.521,3.521,0,0,1-3.705-4.07,4.539,4.539,0,0,1,4.938-4.09,4.98,4.98,0,0,1,1.513.283.348.348,0,0,1,.221.381Z" transform="translate(-326.624 -289.437)"/></g><g transform="translate(194.34 216.193)"><path class="a" d="M449.119,223.664h-1.746a.243.243,0,0,0-.24.2l-.706,4.478a.146.146,0,0,0,.144.168h.9a.17.17,0,0,0,.168-.143l.2-1.269a.243.243,0,0,1,.24-.2h.553a1.793,1.793,0,0,0,1.988-1.66,1.345,1.345,0,0,0-.223-1.127A1.62,1.62,0,0,0,449.119,223.664Zm.2,1.635c-.1.627-.574.627-1.037.627h-.263l.185-1.17a.146.146,0,0,1,.144-.123h.121c.315,0,.613,0,.766.179A.583.583,0,0,1,449.321,225.3Z" transform="translate(-433.97 -223.664)"/><path class="c" d="M340.732,223.664h-1.746a.243.243,0,0,0-.24.2l-.706,4.478a.146.146,0,0,0,.144.168h.834a.243.243,0,0,0,.24-.2l.191-1.208a.243.243,0,0,1,.24-.2h.553a1.794,1.794,0,0,0,1.988-1.66,1.345,1.345,0,0,0-.223-1.127A1.62,1.62,0,0,0,340.732,223.664Zm.2,1.635c-.1.627-.574.627-1.037.627h-.263l.185-1.17a.145.145,0,0,1,.144-.123h.121c.315,0,.613,0,.766.179A.583.583,0,0,1,340.934,225.3Z" transform="translate(-338.038 -223.664)"/><path class="c" d="M376.444,237.114h-.836a.146.146,0,0,0-.144.123l-.037.234-.059-.085a1.19,1.19,0,0,0-.988-.351,1.923,1.923,0,0,0-1.867,1.682,1.579,1.579,0,0,0,.311,1.285,1.309,1.309,0,0,0,1.053.425,1.6,1.6,0,0,0,1.158-.478l-.037.232a.146.146,0,0,0,.144.168h.753a.242.242,0,0,0,.24-.2l.452-2.862A.145.145,0,0,0,376.444,237.114Zm-1.165,1.628a.932.932,0,0,1-.944.8.648.648,0,0,1-.693-.813.936.936,0,0,1,.937-.8.7.7,0,0,1,.557.228A.72.72,0,0,1,375.279,238.741Z" transform="translate(-368.53 -235.498)"/><path class="a" d="M484.831,237.114h-.836a.145.145,0,0,0-.144.123l-.037.234-.059-.085a1.19,1.19,0,0,0-.988-.351,1.923,1.923,0,0,0-1.867,1.682,1.579,1.579,0,0,0,.311,1.285,1.309,1.309,0,0,0,1.053.425,1.6,1.6,0,0,0,1.158-.478l-.037.232a.146.146,0,0,0,.144.168h.753a.243.243,0,0,0,.24-.2l.452-2.862A.145.145,0,0,0,484.831,237.114Zm-1.165,1.628a.932.932,0,0,1-.944.8.648.648,0,0,1-.693-.813.936.936,0,0,1,.937-.8.7.7,0,0,1,.557.228A.72.72,0,0,1,483.665,238.741Z" transform="translate(-464.462 -235.498)"/><path class="c" d="M415.649,237.72h-.84a.243.243,0,0,0-.2.106l-1.159,1.708-.491-1.641a.243.243,0,0,0-.232-.173H411.9a.146.146,0,0,0-.138.193l.925,2.716-.87,1.228a.146.146,0,0,0,.119.23h.84a.242.242,0,0,0,.2-.1l2.8-4.034A.146.146,0,0,0,415.649,237.72Z" transform="translate(-403.282 -236.105)"/><path class="a" d="M518.331,223.787l-.717,4.559a.146.146,0,0,0,.144.168h.721a.243.243,0,0,0,.24-.2l.707-4.478a.146.146,0,0,0-.144-.168h-.807A.145.145,0,0,0,518.331,223.787Z" transform="translate(-496.977 -223.664)"/></g></g></svg>