<svg xmlns="http://www.w3.org/2000/svg" width="74.295" height="18" viewBox="0 0 74.295 18"><defs><style>.a{fill:#0094cb;}.a,.b,.c{fill-rule:evenodd;}.b{fill:#003082;}.c{fill:#00236d;}</style></defs><g transform="translate(-143.479 -354.543)"><path class="a" d="M174.027,386.87H179.1c2.726,0,3.752,1.38,3.594,3.41-.261,3.347-2.285,5.2-4.97,5.2h-1.355c-.368,0-.615.243-.716.9l-.581,3.837c-.038.249-.169.4-.366.413h-3.184c-.3,0-.406-.229-.328-.726l1.944-12.31A.776.776,0,0,1,174.027,386.87Z" transform="translate(-24.066 -28.091)"/><path class="b" d="M316.653,385.134c1.713,0,3.294.929,3.077,3.245-.256,2.746-1.736,4.275-4.064,4.281h-2.03c-.293,0-.434.238-.51.728l-.392,2.5c-.059.377-.252.564-.539.564H310.3c-.3,0-.407-.193-.34-.624l1.563-10.018c.077-.493.265-.676.6-.676Zm-3.08,5.362h1.54c.963-.036,1.6-.7,1.667-1.906a1.163,1.163,0,0,0-1.261-1.271l-1.45.007-.5,3.171Zm11.3,5.187c.173-.157.349-.239.323-.045l-.061.464c-.032.242.064.371.29.371h1.68c.283,0,.421-.115.49-.552l1.035-6.5c.052-.326-.027-.487-.275-.487h-1.847c-.167,0-.247.094-.291.348l-.069.4c-.036.209-.131.245-.22.035-.314-.742-1.113-1.075-2.234-1.052a4.623,4.623,0,0,0-4.525,4.542,3.123,3.123,0,0,0,3.1,3.482,3.339,3.339,0,0,0,2.607-1.009Zm-1.406-1a1.687,1.687,0,0,1-1.731-1.98,2.413,2.413,0,0,1,2.32-1.98,1.687,1.687,0,0,1,1.73,1.98,2.412,2.412,0,0,1-2.32,1.98Zm8.453-5.768h-1.7c-.352,0-.495.257-.383.585l2.115,6.194-2.084,2.946c-.174.246-.04.471.206.471h1.915a.586.586,0,0,0,.569-.279l6.5-9.331c.2-.288.106-.588-.223-.589l-1.81,0c-.311,0-.436.123-.614.381l-2.713,3.936-1.207-3.943A.522.522,0,0,0,331.918,388.917Z" transform="translate(-144.65 -26.582)"/><path class="a" d="M539.32,385.134c1.713,0,3.294.929,3.077,3.245-.256,2.746-1.736,4.275-4.064,4.281H536.3c-.293,0-.433.238-.51.728l-.392,2.5c-.059.377-.252.564-.539.564h-1.891c-.3,0-.407-.193-.34-.624l1.563-10.018c.077-.493.265-.676.6-.676Zm-3.08,5.362h1.54c.963-.036,1.6-.7,1.668-1.906a1.163,1.163,0,0,0-1.261-1.271l-1.45.007-.5,3.171Zm11.3,5.187c.173-.157.349-.239.323-.045l-.061.464c-.032.242.064.371.29.371h1.68c.283,0,.421-.115.49-.552l1.035-6.5c.052-.326-.027-.487-.275-.487h-1.847c-.167,0-.247.094-.291.348l-.069.4c-.036.209-.131.245-.22.035-.314-.742-1.113-1.075-2.234-1.052a4.623,4.623,0,0,0-4.525,4.542,3.123,3.123,0,0,0,3.1,3.482,3.339,3.339,0,0,0,2.607-1.009Zm-1.406-1a1.687,1.687,0,0,1-1.73-1.98,2.412,2.412,0,0,1,2.32-1.98,1.687,1.687,0,0,1,1.73,1.98,2.412,2.412,0,0,1-2.32,1.98Zm7.749,1.8h-1.939a.229.229,0,0,1-.238-.268l1.705-10.792a.335.335,0,0,1,.323-.268h1.939a.229.229,0,0,1,.238.268L554.2,396.218A.335.335,0,0,1,553.881,396.486Z" transform="translate(-338.138 -26.582)"/><path class="b" d="M146.787,354.543h5.082c1.432,0,3.129.047,4.265,1.048a3.441,3.441,0,0,1,1.065,2.88c-.312,3.881-2.633,6.055-5.746,6.055h-2.507c-.427,0-.709.283-.83,1.048l-.7,4.45c-.045.289-.171.459-.4.479h-3.131c-.347,0-.471-.266-.38-.841l2.254-14.274A.9.9,0,0,1,146.787,354.543Z"/><path class="c" d="M179.427,393.216l.888-5.618a.776.776,0,0,1,.884-.728h5.077a4.96,4.96,0,0,1,2.052.373c-.51,3.454-2.744,5.373-5.67,5.373h-2.507C179.822,392.616,179.575,392.785,179.427,393.216Z" transform="translate(-31.237 -28.091)"/></g></svg>