<svg xmlns="http://www.w3.org/2000/svg" width="70.485" height="21.597" viewBox="0 0 70.485 21.597"><defs><style>.a{fill:#da372b;}.b{fill:#1e1e1e;}</style></defs><g transform="translate(-480.215 -519.968)"><path class="a" d="M480.215,529.381a22.447,22.447,0,0,1,2.562-1.649,58.074,58.074,0,0,1,18.239-6.778,55.4,55.4,0,0,1,8.911-.963,56.106,56.106,0,0,1,20.706,3.383.466.466,0,0,1,.375.529c-.019,1.673-.009,3.347-.009,5.021v.332c-.113.057-.181-.018-.253-.053a56.363,56.363,0,0,0-12.074-4.185,60.418,60.418,0,0,0-7.653-1.271c-1.714-.175-3.433-.266-5.157-.291a54.517,54.517,0,0,0-7.75.435,53.46,53.46,0,0,0-16.339,4.8l-1.46.7A.056.056,0,0,1,480.215,529.381Z" transform="translate(0)"/><g transform="translate(483.437 530.023)"><path class="b" d="M577.763,597.121c0-.54.016-1.081-.033-1.621a2.6,2.6,0,0,0-1.926-2.346,3.245,3.245,0,0,0-3.788,1.53,2.69,2.69,0,0,0-2.738-1.654,3.016,3.016,0,0,0-2.777,1.719c-.025-.52-.055-.92-.06-1.32,0-.189-.081-.231-.251-.23-.7.006-1.409.01-2.113,0-.2,0-.251.065-.25.259q.009,3.982,0,7.964c0,.217.066.274.276.271.755-.012,1.51-.018,2.264,0,.29.008.384-.064.38-.369-.017-1.4-.009-2.793-.007-4.189a2.108,2.108,0,0,1,.378-1.353,1.392,1.392,0,0,1,1.486-.482,1.168,1.168,0,0,1,.738,1.161c0,.1,0,.2,0,.3,0,1.522.01,3.045-.008,4.567,0,.31.094.371.378.363.717-.019,1.434-.006,2.151-.007.4,0,.387.056.387-.385q0-2.095,0-4.189a2.036,2.036,0,0,1,.431-1.408,1.385,1.385,0,0,1,1.444-.4,1.142,1.142,0,0,1,.725,1.091,1.279,1.279,0,0,1,0,.151c0,1.61.014,3.22.007,4.831,0,.249.068.321.316.315.742-.016,1.485-.024,2.226,0,.318.011.367-.1.364-.384C577.757,599.914,577.766,598.518,577.763,597.121Z" transform="translate(-552.452 -590.325)"/><path class="b" d="M502.379,580.226a1.465,1.465,0,0,1,.572-.275,4.192,4.192,0,0,1,1.647-.037,3.368,3.368,0,0,1,2.337,1.585c.474-.546.916-1.059,1.362-1.569.313-.359.308-.351-.043-.7a5.642,5.642,0,0,0-3.707-1.635,6.655,6.655,0,0,0-3.871.688,3.324,3.324,0,0,0-1.627,3.762,2.952,2.952,0,0,0,1.911,1.985,12.187,12.187,0,0,0,2.385.681,6.417,6.417,0,0,1,1.659.479.675.675,0,0,1,.457.633.793.793,0,0,1-.434.7,1.867,1.867,0,0,1-.675.225,5.512,5.512,0,0,1-1.837-.049,3.471,3.471,0,0,1-2.155-1.278c-.07-.087-.145-.171-.234-.276-.472.642-.927,1.271-1.395,1.891-.106.141-.049.211.048.312a5.307,5.307,0,0,0,1.756,1.212,8.22,8.22,0,0,0,3.139.53,6.4,6.4,0,0,0,2.862-.549,3.078,3.078,0,0,0,1.967-2.951,2.9,2.9,0,0,0-2.021-2.84,11.221,11.221,0,0,0-2.133-.607,6.677,6.677,0,0,1-1.844-.514A.784.784,0,0,1,502.379,580.226Z" transform="translate(-498.673 -577.565)"/><path class="b" d="M661.29,599.9c-.79.116-1-.063-1-.872,0-.994.008-1.988,0-2.982a2.745,2.745,0,0,0-2.063-2.814,6.3,6.3,0,0,0-3.68-.057,2.905,2.905,0,0,0-2.149,2.071c-.071.245-.048.35.222.419.68.175,1.351.385,2.037.584.065-.189.108-.347.172-.5a1.493,1.493,0,0,1,1.715-.778c.522.092.826.52.9,1.19.03.275-.084.346-.315.387-.753.137-1.51.263-2.251.458a4.39,4.39,0,0,0-1.92.911,2.27,2.27,0,0,0-.628,2.418,1.831,1.831,0,0,0,1.691,1.346,3.862,3.862,0,0,0,3.864-1.152,1.409,1.409,0,0,0,.568.808,2.865,2.865,0,0,0,2.6.231.246.246,0,0,0,.182-.215c.062-.482.125-.964.19-1.462A1.217,1.217,0,0,0,661.29,599.9Zm-3.841-1.438a1.441,1.441,0,0,1-1.786,1.4.686.686,0,0,1-.568-.578.718.718,0,0,1,.338-.739,2.526,2.526,0,0,1,.775-.275c.257-.055.51-.126.766-.187C657.453,597.975,657.453,597.976,657.449,598.463Z" transform="translate(-625.418 -590.247)"/><path class="b" d="M841.675,596.823a3.835,3.835,0,0,0-3.181-3.651,6.779,6.779,0,0,0-2.249-.058,3.8,3.8,0,0,0-3.338,2.976,5.715,5.715,0,0,0,.029,2.871,3.63,3.63,0,0,0,2.639,2.686,5.987,5.987,0,0,0,3.129.05,3.642,3.642,0,0,0,2.525-1.97,4.6,4.6,0,0,0,.447-2.264C841.677,597.25,841.689,597.035,841.675,596.823Zm-3.087,2.09a1.306,1.306,0,0,1-1.348.88,1.276,1.276,0,0,1-1.362-.856,4.406,4.406,0,0,1,.011-2.986,1.3,1.3,0,0,1,1.343-.836,1.336,1.336,0,0,1,1.353.88,4.4,4.4,0,0,1,.224,1.665A3.577,3.577,0,0,1,838.588,598.912Z" transform="translate(-774.419 -590.345)"/><path class="b" d="M753.915,587.493a2.1,2.1,0,0,1-.973.358c-.925.094-1.35-.272-1.358-1.2-.009-.993.009-1.987-.009-2.98,0-.278.093-.328.343-.322.641.017,1.283,0,1.924.009.2,0,.293-.036.286-.264-.016-.515-.017-1.031,0-1.546.008-.235-.094-.265-.289-.262-.6.009-1.207.005-1.811,0-.5,0-.443.05-.445-.441,0-.738,0-1.475,0-2.257-.948.263-1.85.517-2.754.761-.161.043-.14.152-.141.262,0,.44-.023.882.007,1.32.022.314-.1.383-.38.361s-.553,0-.829-.007c-.161,0-.255.019-.25.22.013.54.011,1.081,0,1.622,0,.187.065.236.24.229.3-.012.6.013.905-.008.248-.018.314.063.312.31-.013,1.207-.021,2.415,0,3.621A2.264,2.264,0,0,0,750,589.591a4.725,4.725,0,0,0,4.009-.179.264.264,0,0,0,.171-.326C754.091,588.572,754.009,588.057,753.915,587.493Z" transform="translate(-703.842 -578.413)"/><path class="b" d="M799.8,593.06a2.555,2.555,0,0,0-2.93,1.453c-.04.082-.014.241-.184.239-.031-.446-.072-.884-.087-1.322-.007-.2-.07-.255-.266-.252q-1.019.017-2.038,0c-.218,0-.273.072-.272.282q.01,3.962,0,7.925c0,.246.087.29.306.286.767-.011,1.535-.013,2.3,0,.233,0,.3-.063.3-.3-.013-.7-.011-1.409,0-2.113.009-.754-.047-1.51.03-2.261a1.751,1.751,0,0,1,1.671-1.6,2.889,2.889,0,0,1,1.26.226c.087-.719.144-1.422.268-2.112C800.212,593.172,800.061,593.113,799.8,593.06Z" transform="translate(-742.457 -590.304)"/><path class="b" d="M717.114,593.089a2.568,2.568,0,0,0-2.99,1.592.265.265,0,0,1-.113.208.508.508,0,0,1-.017-.282c-.027-.388-.065-.776-.078-1.165-.005-.178-.056-.237-.239-.235q-1.056.015-2.112,0c-.191,0-.228.07-.227.243q.006,4,0,8c0,.2.054.257.254.254.716-.012,1.433,0,2.15,0,.508,0,.508,0,.508-.49,0-1.3-.007-2.59,0-3.885a1.8,1.8,0,0,1,2-1.891,3.483,3.483,0,0,1,.95.232c.088-.717.151-1.418.268-2.11C717.528,593.216,717.38,593.138,717.114,593.089Z" transform="translate(-674.211 -590.334)"/></g></g></svg>