<svg xmlns="http://www.w3.org/2000/svg" xmlns:xlink="http://www.w3.org/1999/xlink" width="44.223" height="14.281" viewBox="0 0 44.223 14.281"><defs><style>.a{fill:none;}.b{clip-path:url(#a);}.c{fill:url(#b);}</style><clipPath id="a"><path class="a" d="M90.371,195.632c-.025,1.989,1.773,3.1,3.127,3.759,1.392.677,1.859,1.111,1.854,1.717-.011.927-1.11,1.336-2.139,1.352a7.466,7.466,0,0,1-3.669-.872l-.647,3.026a10.759,10.759,0,0,0,3.973.733c3.753,0,6.208-1.853,6.221-4.725.015-3.645-5.042-3.847-5.008-5.477.012-.494.483-1.021,1.517-1.155a6.726,6.726,0,0,1,3.523.618l.628-2.928a9.578,9.578,0,0,0-3.344-.614c-3.532,0-6.017,1.878-6.037,4.566m15.416-4.313a1.628,1.628,0,0,0-1.52,1.013l-5.361,12.8h3.75l.746-2.062h4.583l.433,2.062h3.305l-2.884-13.813h-3.052m.525,3.731,1.082,5.187H104.43l1.882-5.187m-20.488-3.731-2.956,13.813h3.574L89.4,191.318H85.824m-5.287,0-3.72,9.4-1.5-7.994a1.666,1.666,0,0,0-1.648-1.408H67.585l-.085.4a14.88,14.88,0,0,1,3.526,1.175,1.512,1.512,0,0,1,.848,1.214l2.85,11.023H78.5l5.79-13.813H80.538" transform="translate(-67.5 -191.066)"/></clipPath><linearGradient id="b" x1="-0.066" y1="-0.205" x2="-0.064" y2="-0.205" gradientUnits="objectBoundingBox"><stop offset="0" stop-color="#222357"/><stop offset="1" stop-color="#254aa5"/></linearGradient></defs><g transform="translate(-67.5 -191.066)"><g transform="translate(67.5 191.066)"><g class="b" transform="translate(0 0)"><path class="c" d="M29.277,88.746,72.851,72.7l9.913,26.917L39.191,115.663" transform="translate(-33.909 -87.04)"/></g></g></g></svg>